<?xml version="1.0" standalone="no"?>
<!DOCTYPE svg PUBLIC "-//W3C//DTD SVG 20010904//EN"
 "http://www.w3.org/TR/2001/REC-SVG-20010904/DTD/svg10.dtd">
<svg version="1.0" xmlns="http://www.w3.org/2000/svg"
 width="3950.000000pt" height="6254.000000pt" viewBox="0 0 3950.000000 6254.000000"
 preserveAspectRatio="xMidYMid meet">

<g transform="translate(0.000000,6254.000000) scale(0.100000,-0.100000)"
fill="#000000" stroke="none">
<path d="M10 31270 l0 -31260 19745 0 19745 0 0 31260 0 31260 -19745 0
-19745 0 0 -31260z m39470 0 l0 -31240 -19725 0 -19725 0 0 31240 0 31240
19725 0 19725 0 0 -31240z"/>
<path d="M21840 49351 c-45 -14 -84 -39 -113 -69 -23 -24 -30 -43 -38 -103 -5
-41 -16 -94 -25 -119 -44 -117 -149 -239 -260 -301 -92 -51 -177 -142 -223
-239 -73 -150 -87 -278 -44 -410 22 -69 152 -325 227 -449 176 -289 411 -512
706 -669 52 -28 113 -58 135 -67 l40 -16 -35 28 c-115 92 -182 173 -247 300
-76 149 -56 210 66 201 73 -5 140 -43 190 -108 19 -25 32 -37 28 -28 -95 260
-142 525 -108 606 33 79 159 41 246 -75 44 -59 117 -208 141 -286 l18 -57 25
52 c15 30 38 59 53 68 25 13 29 13 52 -9 13 -13 30 -36 36 -52 l12 -28 32 23
c60 45 86 43 113 -8 14 -26 16 -61 15 -218 -1 -107 2 -188 7 -188 5 0 21 33
35 73 51 142 106 402 131 617 53 451 -59 949 -247 1103 -106 87 -216 105 -321
53 l-59 -28 -31 38 c-133 163 -293 325 -345 350 -41 19 -171 29 -212 15z"/>
<path d="M24716 48754 c-128 -31 -289 -127 -372 -222 l-32 -35 -58 46 c-138
106 -261 112 -437 20 -189 -100 -325 -302 -560 -833 -102 -231 -136 -329 -162
-461 -19 -100 -30 -317 -18 -376 l8 -42 75 122 c146 236 279 406 331 422 51
17 67 -54 45 -200 -8 -55 -13 -101 -11 -104 8 -7 101 68 157 126 31 33 77 92
103 131 25 40 49 72 52 72 10 0 -7 -132 -31 -237 -13 -60 -18 -100 -12 -96 6
4 58 48 116 98 323 281 520 413 520 350 0 -24 -66 -150 -128 -245 -81 -125
-135 -193 -249 -310 l-102 -106 145 23 c458 71 603 45 463 -81 -146 -131 -420
-254 -656 -295 l-108 -18 70 -9 c115 -14 408 -8 528 10 277 43 499 143 628
284 66 71 118 181 156 327 26 104 28 122 27 310 0 191 -1 205 -31 315 l-31
115 34 42 c111 136 119 244 47 603 -13 69 -31 135 -39 147 -17 27 -140 88
-219 108 -72 18 -170 18 -249 -1z"/>
<path d="M20575 47235 c-156 -34 -332 -160 -390 -279 l-25 -52 11 -159 c6 -88
13 -185 16 -216 l5 -57 -62 -47 c-69 -53 -127 -121 -161 -192 -22 -44 -24 -60
-24 -208 0 -142 3 -168 24 -233 44 -135 146 -264 280 -355 75 -50 213 -120
264 -132 15 -4 27 -11 27 -15 0 -15 161 -60 290 -82 69 -12 128 -25 131 -30 3
-5 46 -11 95 -15 49 -3 101 -12 116 -19 15 -8 39 -14 55 -14 26 0 26 -1 8 -14
-11 -7 -44 -21 -72 -30 -63 -21 -71 -41 -13 -33 47 6 48 1 24 -72 -14 -45 -14
-53 4 -112 23 -76 54 -102 143 -121 58 -12 59 -13 59 -45 0 -39 -2 -39 125
-13 53 11 99 20 101 20 2 0 4 -2509 4 -5576 l0 -5576 131 -406 c143 -444 192
-561 318 -753 199 -305 432 -529 723 -696 48 -28 84 -54 80 -58 -4 -5 -2 -5 5
-1 7 4 28 -1 48 -11 l35 -18 -168 -121 c-756 -546 -1325 -1151 -1707 -1814
-369 -640 -659 -1376 -859 -2176 -43 -175 -45 -185 -60 -464 -19 -327 -22
-1076 -6 -1375 31 -594 89 -1101 206 -1800 125 -748 261 -1240 516 -1875 392
-973 902 -1753 1584 -2420 586 -573 1224 -974 1934 -1214 266 -90 599 -161
865 -186 142 -13 415 -13 530 0 382 44 623 165 905 456 223 230 381 420 528
633 97 140 190 239 332 353 282 225 511 321 823 343 l97 7 0 -1275 0 -1276
-52 -15 c-184 -52 -247 -69 -368 -95 -295 -66 -613 -112 -913 -132 -304 -20
-912 -1 -1122 35 -17 3 -93 15 -170 26 -954 145 -2005 569 -2850 1148 -241
166 -478 352 -680 534 -86 78 -81 72 36 -44 650 -639 1552 -1200 2442 -1517
481 -172 941 -276 1467 -332 245 -26 713 -36 960 -20 1210 79 2340 503 3337
1250 870 652 1586 1507 2065 2466 105 210 118 253 118 403 0 118 3 138 40 271
141 511 147 865 20 1252 -39 119 -130 315 -155 335 -8 6 -12 14 -8 17 3 4 1 7
-6 7 -7 0 -10 4 -7 9 4 5 2 11 -2 13 -4 1 -25 35 -47 73 -261 474 -725 869
-1200 1024 -186 60 -290 76 -495 75 -140 0 -195 -5 -277 -22 -393 -84 -727
-312 -1002 -685 -122 -165 -211 -328 -276 -502 -219 -587 -608 -1124 -1062
-1466 -473 -357 -986 -522 -1618 -521 -608 1 -1102 175 -1575 555 -116 94
-355 340 -454 467 -110 142 -227 316 -219 324 4 3 0 6 -7 6 -7 0 -10 3 -7 7 4
3 -1 12 -11 20 -11 10 -12 12 -2 8 8 -4 6 1 -4 9 -11 9 -16 16 -11 16 5 0 0 7
-11 16 -10 8 -14 13 -7 9 7 -3 -19 59 -57 137 -260 540 -419 1148 -482 1848
-20 225 -17 939 5 1160 74 733 244 1337 531 1896 478 927 1197 1495 2066 1629
143 23 496 31 657 16 343 -32 619 -104 891 -232 56 -26 100 -42 96 -36 -3 7 1
4 9 -5 8 -10 17 -15 20 -11 4 3 7 1 7 -5 0 -7 4 -11 9 -9 5 1 50 -26 99 -61
486 -341 907 -903 1136 -1517 160 -427 490 -826 853 -1030 43 -24 83 -49 89
-54 7 -5 15 -7 18 -4 3 4 6 1 6 -5 0 -6 7 -9 17 -5 11 4 14 3 9 -5 -9 -16 150
-95 278 -137 270 -90 573 -93 863 -9 584 169 1152 720 1344 1306 172 523 91
1116 -247 1816 -49 100 -78 151 -86 146 -7 -4 -8 -3 -4 4 8 13 -50 132 -64
132 -6 0 -9 3 -9 8 3 19 -2 33 -11 27 -6 -3 -7 1 -4 9 4 9 -1 18 -10 22 -9 3
-13 10 -10 15 3 5 0 9 -6 9 -6 0 -8 5 -5 10 3 6 1 10 -5 10 -6 0 -8 5 -5 10 3
6 1 10 -4 10 -6 0 -11 7 -11 15 0 8 -5 15 -11 15 -5 0 -7 5 -4 10 3 6 1 10 -6
10 -7 0 -10 3 -6 6 3 3 -1 13 -9 22 -8 10 -14 21 -13 26 0 5 -3 12 -8 15 -5 3
-49 74 -98 156 -278 471 -553 831 -919 1203 -724 737 -1621 1272 -2618 1562
-405 118 -840 194 -1313 231 -191 15 -725 15 -920 0 -249 -19 -665 -70 -784
-97 l-23 -5 4 118 c11 263 -19 515 -108 912 -371 1671 -1264 4981 -2484 9214
-126 439 -138 503 -106 565 35 67 85 93 246 126 302 63 607 189 781 322 272
208 392 609 296 985 -26 101 -84 232 -121 272 -11 13 -40 61 -63 108 -24 46
-72 122 -107 169 -74 99 -234 255 -326 320 l-65 45 23 -35 c115 -175 182 -393
182 -591 0 -92 -21 -259 -28 -224 -6 29 -81 155 -108 182 -13 13 -21 23 -18
23 3 0 0 6 -5 13 -6 6 -43 77 -84 157 -40 80 -102 191 -137 248 l-65 103 -7
-205 c-11 -334 -38 -510 -85 -566 -14 -17 -29 -30 -33 -30 -43 0 -133 155
-202 347 l-33 92 -1 -122 c-1 -142 -20 -232 -66 -319 -71 -133 -167 -150 -290
-53 -42 34 -43 34 -50 12 -3 -12 -7 -38 -7 -57 -2 -50 -15 -21 -31 65 -7 39
-27 102 -45 141 -58 128 -55 192 16 269 34 37 65 54 187 106 291 122 443 211
540 313 108 114 150 276 90 351 -31 40 -55 33 -62 -19 -17 -112 -114 -237
-259 -333 -89 -59 -284 -157 -444 -223 -111 -46 -473 -175 -645 -230 l-58 -18
0 42 c0 42 1 43 77 91 92 58 254 178 303 224 19 18 45 40 58 48 27 19 31 86 5
123 -29 45 -76 89 -87 84 -6 -3 12 14 39 38 81 70 203 189 258 252 l51 59 -84
-60 c-76 -54 -275 -174 -313 -189 -11 -4 -27 17 -57 73 -50 90 -111 193 -116
193 -2 0 17 -39 41 -87 48 -93 89 -193 81 -200 -2 -2 -9 13 -16 34 -7 21 -37
88 -67 148 -31 61 -57 119 -59 130 -2 11 -9 43 -16 72 -10 44 -9 55 5 77 27
41 58 55 142 66 44 6 93 19 112 30 19 11 41 20 50 20 10 0 13 6 9 16 -3 9 -6
34 -6 56 0 35 -6 47 -40 79 -22 21 -40 40 -40 43 0 4 101 22 160 29 66 7 -453
232 -785 340 -422 138 -756 191 -940 152z m1525 -539 c0 -2 -8 -10 -17 -17
-16 -13 -17 -12 -4 4 13 16 21 21 21 13z m57 -172 c-3 -3 -12 -4 -19 -1 -8 3
-5 6 6 6 11 1 17 -2 13 -5z m-277 -194 c6 -11 8 -20 6 -20 -3 0 -10 9 -16 20
-6 11 -8 20 -6 20 3 0 10 -9 16 -20z m30 -50 c6 -11 8 -20 6 -20 -3 0 -10 9
-16 20 -6 11 -8 20 -6 20 3 0 10 -9 16 -20z m2217 -1202 c-3 -8 -6 -5 -6 6 -1
11 2 17 5 13 3 -3 4 -12 1 -19z m10 -50 c-3 -8 -6 -5 -6 6 -1 11 2 17 5 13 3
-3 4 -12 1 -19z m10 -60 c-3 -8 -6 -5 -6 6 -1 11 2 17 5 13 3 -3 4 -12 1 -19z
m10 -175 c-2 -21 -4 -6 -4 32 0 39 2 55 4 38 2 -18 2 -50 0 -70z m-1328 -1453
c0 -9 -4 -8 -9 5 -5 11 -9 27 -9 35 0 9 4 8 9 -5 5 -11 9 -27 9 -35z m20 -70
c0 -9 -4 -8 -9 5 -5 11 -9 27 -9 35 0 9 4 8 9 -5 5 -11 9 -27 9 -35z m20 -70
c0 -9 -4 -8 -9 5 -5 11 -9 27 -9 35 0 9 4 8 9 -5 5 -11 9 -27 9 -35z m18 -72
c-3 -8 -6 -5 -6 6 -1 11 2 17 5 13 3 -3 4 -12 1 -19z m32 -98 c0 -9 -4 -8 -9
5 -5 11 -9 27 -9 35 0 9 4 8 9 -5 5 -11 9 -27 9 -35z m20 -70 c0 -9 -4 -8 -9
5 -5 11 -9 27 -9 35 0 9 4 8 9 -5 5 -11 9 -27 9 -35z m20 -70 c0 -9 -4 -8 -9
5 -5 11 -9 27 -9 35 0 9 4 8 9 -5 5 -11 9 -27 9 -35z m20 -70 c0 -9 -4 -8 -9
5 -5 11 -9 27 -9 35 0 9 4 8 9 -5 5 -11 9 -27 9 -35z m20 -70 c0 -9 -4 -8 -9
5 -5 11 -9 27 -9 35 0 9 4 8 9 -5 5 -11 9 -27 9 -35z m20 -70 c0 -9 -4 -8 -9
5 -5 11 -9 27 -9 35 0 9 4 8 9 -5 5 -11 9 -27 9 -35z m18 -72 c-3 -8 -6 -5 -6
6 -1 11 2 17 5 13 3 -3 4 -12 1 -19z m20 -70 c-3 -8 -6 -5 -6 6 -1 11 2 17 5
13 3 -3 4 -12 1 -19z m32 -98 c0 -9 -4 -8 -9 5 -5 11 -9 27 -9 35 0 9 4 8 9
-5 5 -11 9 -27 9 -35z m20 -70 c0 -9 -4 -8 -9 5 -5 11 -9 27 -9 35 0 9 4 8 9
-5 5 -11 9 -27 9 -35z m20 -70 c0 -9 -4 -8 -9 5 -5 11 -9 27 -9 35 0 9 4 8 9
-5 5 -11 9 -27 9 -35z m20 -70 c0 -9 -4 -8 -9 5 -5 11 -9 27 -9 35 0 9 4 8 9
-5 5 -11 9 -27 9 -35z m20 -70 c0 -9 -4 -8 -9 5 -5 11 -9 27 -9 35 0 9 4 8 9
-5 5 -11 9 -27 9 -35z m20 -70 c0 -9 -4 -8 -9 5 -5 11 -9 27 -9 35 0 9 4 8 9
-5 5 -11 9 -27 9 -35z m20 -70 c0 -9 -4 -8 -9 5 -5 11 -9 27 -9 35 0 9 4 8 9
-5 5 -11 9 -27 9 -35z m20 -70 c0 -9 -4 -8 -9 5 -5 11 -9 27 -9 35 0 9 4 8 9
-5 5 -11 9 -27 9 -35z m20 -70 c0 -9 -4 -8 -9 5 -5 11 -9 27 -9 35 0 9 4 8 9
-5 5 -11 9 -27 9 -35z m20 -70 c0 -9 -4 -8 -9 5 -5 11 -9 27 -9 35 0 9 4 8 9
-5 5 -11 9 -27 9 -35z m20 -70 c0 -9 -4 -8 -9 5 -5 11 -9 27 -9 35 0 9 4 8 9
-5 5 -11 9 -27 9 -35z m20 -70 c0 -9 -4 -8 -9 5 -5 11 -9 27 -9 35 0 9 4 8 9
-5 5 -11 9 -27 9 -35z m20 -70 c0 -9 -4 -8 -9 5 -5 11 -9 27 -9 35 0 9 4 8 9
-5 5 -11 9 -27 9 -35z m20 -70 c0 -9 -4 -8 -9 5 -5 11 -9 27 -9 35 0 9 4 8 9
-5 5 -11 9 -27 9 -35z m20 -70 c0 -9 -4 -8 -9 5 -5 11 -9 27 -9 35 0 9 4 8 9
-5 5 -11 9 -27 9 -35z m20 -70 c0 -9 -4 -8 -9 5 -5 11 -9 27 -9 35 0 9 4 8 9
-5 5 -11 9 -27 9 -35z m20 -70 c0 -9 -4 -8 -9 5 -5 11 -9 27 -9 35 0 9 4 8 9
-5 5 -11 9 -27 9 -35z m8 -42 c-3 -8 -6 -5 -6 6 -1 11 2 17 5 13 3 -3 4 -12 1
-19z m20 -70 c-3 -8 -6 -5 -6 6 -1 11 2 17 5 13 3 -3 4 -12 1 -19z m20 -70
c-3 -8 -6 -5 -6 6 -1 11 2 17 5 13 3 -3 4 -12 1 -19z m22 -68 c0 -9 -4 -8 -9
5 -5 11 -9 27 -9 35 0 9 4 8 9 -5 5 -11 9 -27 9 -35z m20 -70 c0 -9 -4 -8 -9
5 -5 11 -9 27 -9 35 0 9 4 8 9 -5 5 -11 9 -27 9 -35z m20 -70 c0 -9 -4 -8 -9
5 -5 11 -9 27 -9 35 0 9 4 8 9 -5 5 -11 9 -27 9 -35z m20 -70 c0 -9 -4 -8 -9
5 -5 11 -9 27 -9 35 0 9 4 8 9 -5 5 -11 9 -27 9 -35z m20 -70 c0 -9 -4 -8 -9
5 -5 11 -9 27 -9 35 0 9 4 8 9 -5 5 -11 9 -27 9 -35z m8 -42 c-3 -8 -6 -5 -6
6 -1 11 2 17 5 13 3 -3 4 -12 1 -19z m20 -70 c-3 -8 -6 -5 -6 6 -1 11 2 17 5
13 3 -3 4 -12 1 -19z m20 -70 c-3 -8 -6 -5 -6 6 -1 11 2 17 5 13 3 -3 4 -12 1
-19z m20 -70 c-3 -8 -6 -5 -6 6 -1 11 2 17 5 13 3 -3 4 -12 1 -19z m20 -70
c-3 -8 -6 -5 -6 6 -1 11 2 17 5 13 3 -3 4 -12 1 -19z m22 -68 c0 -9 -4 -8 -9
5 -5 11 -9 27 -9 35 0 9 4 8 9 -5 5 -11 9 -27 9 -35z m8 -42 c-3 -8 -6 -5 -6
6 -1 11 2 17 5 13 3 -3 4 -12 1 -19z m20 -70 c-3 -8 -6 -5 -6 6 -1 11 2 17 5
13 3 -3 4 -12 1 -19z m20 -70 c-3 -8 -6 -5 -6 6 -1 11 2 17 5 13 3 -3 4 -12 1
-19z m20 -70 c-3 -8 -6 -5 -6 6 -1 11 2 17 5 13 3 -3 4 -12 1 -19z m10 -40
c-3 -8 -6 -5 -6 6 -1 11 2 17 5 13 3 -3 4 -12 1 -19z m20 -70 c-3 -8 -6 -5 -6
6 -1 11 2 17 5 13 3 -3 4 -12 1 -19z m20 -70 c-3 -8 -6 -5 -6 6 -1 11 2 17 5
13 3 -3 4 -12 1 -19z m22 -68 c0 -9 -4 -8 -9 5 -5 11 -9 27 -9 35 0 9 4 8 9
-5 5 -11 9 -27 9 -35z m8 -42 c-3 -8 -6 -5 -6 6 -1 11 2 17 5 13 3 -3 4 -12 1
-19z m20 -70 c-3 -8 -6 -5 -6 6 -1 11 2 17 5 13 3 -3 4 -12 1 -19z m20 -70
c-3 -8 -6 -5 -6 6 -1 11 2 17 5 13 3 -3 4 -12 1 -19z m22 -68 c0 -9 -4 -8 -9
5 -5 11 -9 27 -9 35 0 9 4 8 9 -5 5 -11 9 -27 9 -35z m8 -42 c-3 -8 -6 -5 -6
6 -1 11 2 17 5 13 3 -3 4 -12 1 -19z m20 -70 c-3 -8 -6 -5 -6 6 -1 11 2 17 5
13 3 -3 4 -12 1 -19z m22 -68 c0 -9 -4 -8 -9 5 -5 11 -9 27 -9 35 0 9 4 8 9
-5 5 -11 9 -27 9 -35z m8 -42 c-3 -8 -6 -5 -6 6 -1 11 2 17 5 13 3 -3 4 -12 1
-19z m20 -70 c-3 -8 -6 -5 -6 6 -1 11 2 17 5 13 3 -3 4 -12 1 -19z m22 -68 c0
-9 -4 -8 -9 5 -5 11 -9 27 -9 35 0 9 4 8 9 -5 5 -11 9 -27 9 -35z m8 -42 c-3
-8 -6 -5 -6 6 -1 11 2 17 5 13 3 -3 4 -12 1 -19z m20 -70 c-3 -8 -6 -5 -6 6
-1 11 2 17 5 13 3 -3 4 -12 1 -19z m10 -40 c-3 -8 -6 -5 -6 6 -1 11 2 17 5 13
3 -3 4 -12 1 -19z m20 -70 c-3 -8 -6 -5 -6 6 -1 11 2 17 5 13 3 -3 4 -12 1
-19z m20 -70 c-3 -8 -6 -5 -6 6 -1 11 2 17 5 13 3 -3 4 -12 1 -19z m10 -40
c-3 -8 -6 -5 -6 6 -1 11 2 17 5 13 3 -3 4 -12 1 -19z m20 -70 c-3 -8 -6 -5 -6
6 -1 11 2 17 5 13 3 -3 4 -12 1 -19z m10 -40 c-3 -8 -6 -5 -6 6 -1 11 2 17 5
13 3 -3 4 -12 1 -19z m20 -70 c-3 -8 -6 -5 -6 6 -1 11 2 17 5 13 3 -3 4 -12 1
-19z m20 -70 c-3 -8 -6 -5 -6 6 -1 11 2 17 5 13 3 -3 4 -12 1 -19z m10 -40
c-3 -8 -6 -5 -6 6 -1 11 2 17 5 13 3 -3 4 -12 1 -19z m20 -70 c-3 -8 -6 -5 -6
6 -1 11 2 17 5 13 3 -3 4 -12 1 -19z m10 -40 c-3 -8 -6 -5 -6 6 -1 11 2 17 5
13 3 -3 4 -12 1 -19z m20 -70 c-3 -8 -6 -5 -6 6 -1 11 2 17 5 13 3 -3 4 -12 1
-19z m10 -40 c-3 -8 -6 -5 -6 6 -1 11 2 17 5 13 3 -3 4 -12 1 -19z m20 -70
c-3 -8 -6 -5 -6 6 -1 11 2 17 5 13 3 -3 4 -12 1 -19z m10 -40 c-3 -8 -6 -5 -6
6 -1 11 2 17 5 13 3 -3 4 -12 1 -19z m20 -70 c-3 -8 -6 -5 -6 6 -1 11 2 17 5
13 3 -3 4 -12 1 -19z m10 -40 c-3 -8 -6 -5 -6 6 -1 11 2 17 5 13 3 -3 4 -12 1
-19z m20 -70 c-3 -8 -6 -5 -6 6 -1 11 2 17 5 13 3 -3 4 -12 1 -19z m10 -40
c-3 -8 -6 -5 -6 6 -1 11 2 17 5 13 3 -3 4 -12 1 -19z m20 -70 c-3 -8 -6 -5 -6
6 -1 11 2 17 5 13 3 -3 4 -12 1 -19z m10 -40 c-3 -8 -6 -5 -6 6 -1 11 2 17 5
13 3 -3 4 -12 1 -19z m20 -70 c-3 -8 -6 -5 -6 6 -1 11 2 17 5 13 3 -3 4 -12 1
-19z m10 -40 c-3 -8 -6 -5 -6 6 -1 11 2 17 5 13 3 -3 4 -12 1 -19z m20 -70
c-3 -8 -6 -5 -6 6 -1 11 2 17 5 13 3 -3 4 -12 1 -19z m10 -40 c-3 -8 -6 -5 -6
6 -1 11 2 17 5 13 3 -3 4 -12 1 -19z m22 -68 c0 -9 -4 -8 -9 5 -5 11 -9 27 -9
35 0 9 4 8 9 -5 5 -11 9 -27 9 -35z m8 -42 c-3 -8 -6 -5 -6 6 -1 11 2 17 5 13
3 -3 4 -12 1 -19z m10 -40 c-3 -8 -6 -5 -6 6 -1 11 2 17 5 13 3 -3 4 -12 1
-19z m20 -70 c-3 -8 -6 -5 -6 6 -1 11 2 17 5 13 3 -3 4 -12 1 -19z m10 -40
c-3 -8 -6 -5 -6 6 -1 11 2 17 5 13 3 -3 4 -12 1 -19z m20 -70 c-3 -8 -6 -5 -6
6 -1 11 2 17 5 13 3 -3 4 -12 1 -19z m10 -40 c-3 -8 -6 -5 -6 6 -1 11 2 17 5
13 3 -3 4 -12 1 -19z m10 -40 c-3 -8 -6 -5 -6 6 -1 11 2 17 5 13 3 -3 4 -12 1
-19z m20 -70 c-3 -8 -6 -5 -6 6 -1 11 2 17 5 13 3 -3 4 -12 1 -19z m10 -40
c-3 -8 -6 -5 -6 6 -1 11 2 17 5 13 3 -3 4 -12 1 -19z m22 -68 c0 -9 -4 -8 -9
5 -5 11 -9 27 -9 35 0 9 4 8 9 -5 5 -11 9 -27 9 -35z m8 -42 c-3 -8 -6 -5 -6
6 -1 11 2 17 5 13 3 -3 4 -12 1 -19z m10 -40 c-3 -8 -6 -5 -6 6 -1 11 2 17 5
13 3 -3 4 -12 1 -19z m22 -68 c0 -9 -4 -8 -9 5 -5 11 -9 27 -9 35 0 9 4 8 9
-5 5 -11 9 -27 9 -35z m8 -42 c-3 -8 -6 -5 -6 6 -1 11 2 17 5 13 3 -3 4 -12 1
-19z m10 -40 c-3 -8 -6 -5 -6 6 -1 11 2 17 5 13 3 -3 4 -12 1 -19z m10 -40
c-3 -8 -6 -5 -6 6 -1 11 2 17 5 13 3 -3 4 -12 1 -19z m20 -70 c-3 -8 -6 -5 -6
6 -1 11 2 17 5 13 3 -3 4 -12 1 -19z m10 -40 c-3 -8 -6 -5 -6 6 -1 11 2 17 5
13 3 -3 4 -12 1 -19z m10 -40 c-3 -8 -6 -5 -6 6 -1 11 2 17 5 13 3 -3 4 -12 1
-19z m20 -70 c-3 -8 -6 -5 -6 6 -1 11 2 17 5 13 3 -3 4 -12 1 -19z m10 -40
c-3 -8 -6 -5 -6 6 -1 11 2 17 5 13 3 -3 4 -12 1 -19z m10 -40 c-3 -8 -6 -5 -6
6 -1 11 2 17 5 13 3 -3 4 -12 1 -19z m10 -40 c-3 -8 -6 -5 -6 6 -1 11 2 17 5
13 3 -3 4 -12 1 -19z m20 -70 c-3 -8 -6 -5 -6 6 -1 11 2 17 5 13 3 -3 4 -12 1
-19z m10 -40 c-3 -8 -6 -5 -6 6 -1 11 2 17 5 13 3 -3 4 -12 1 -19z m10 -40
c-3 -8 -6 -5 -6 6 -1 11 2 17 5 13 3 -3 4 -12 1 -19z m10 -40 c-3 -8 -6 -5 -6
6 -1 11 2 17 5 13 3 -3 4 -12 1 -19z m20 -70 c-3 -8 -6 -5 -6 6 -1 11 2 17 5
13 3 -3 4 -12 1 -19z m10 -40 c-3 -8 -6 -5 -6 6 -1 11 2 17 5 13 3 -3 4 -12 1
-19z m10 -40 c-3 -8 -6 -5 -6 6 -1 11 2 17 5 13 3 -3 4 -12 1 -19z m10 -40
c-3 -8 -6 -5 -6 6 -1 11 2 17 5 13 3 -3 4 -12 1 -19z m10 -40 c-3 -8 -6 -5 -6
6 -1 11 2 17 5 13 3 -3 4 -12 1 -19z m20 -70 c-3 -8 -6 -5 -6 6 -1 11 2 17 5
13 3 -3 4 -12 1 -19z m10 -40 c-3 -8 -6 -5 -6 6 -1 11 2 17 5 13 3 -3 4 -12 1
-19z m10 -40 c-3 -8 -6 -5 -6 6 -1 11 2 17 5 13 3 -3 4 -12 1 -19z m10 -40
c-3 -8 -6 -5 -6 6 -1 11 2 17 5 13 3 -3 4 -12 1 -19z m10 -40 c-3 -8 -6 -5 -6
6 -1 11 2 17 5 13 3 -3 4 -12 1 -19z m10 -40 c-3 -8 -6 -5 -6 6 -1 11 2 17 5
13 3 -3 4 -12 1 -19z m22 -68 c0 -9 -4 -8 -9 5 -5 11 -9 27 -9 35 0 9 4 8 9
-5 5 -11 9 -27 9 -35z m8 -42 c-3 -8 -6 -5 -6 6 -1 11 2 17 5 13 3 -3 4 -12 1
-19z m10 -40 c-3 -8 -6 -5 -6 6 -1 11 2 17 5 13 3 -3 4 -12 1 -19z m10 -40
c-3 -8 -6 -5 -6 6 -1 11 2 17 5 13 3 -3 4 -12 1 -19z m10 -40 c-3 -8 -6 -5 -6
6 -1 11 2 17 5 13 3 -3 4 -12 1 -19z m10 -40 c-3 -8 -6 -5 -6 6 -1 11 2 17 5
13 3 -3 4 -12 1 -19z m10 -40 c-3 -8 -6 -5 -6 6 -1 11 2 17 5 13 3 -3 4 -12 1
-19z m10 -40 c-3 -8 -6 -5 -6 6 -1 11 2 17 5 13 3 -3 4 -12 1 -19z m10 -40
c-3 -8 -6 -5 -6 6 -1 11 2 17 5 13 3 -3 4 -12 1 -19z m10 -40 c-3 -8 -6 -5 -6
6 -1 11 2 17 5 13 3 -3 4 -12 1 -19z m10 -40 c-3 -8 -6 -5 -6 6 -1 11 2 17 5
13 3 -3 4 -12 1 -19z m30 -110 c-3 -8 -6 -5 -6 6 -1 11 2 17 5 13 3 -3 4 -12
1 -19z m10 -40 c-3 -8 -6 -5 -6 6 -1 11 2 17 5 13 3 -3 4 -12 1 -19z m10 -40
c-3 -8 -6 -5 -6 6 -1 11 2 17 5 13 3 -3 4 -12 1 -19z m10 -40 c-3 -8 -6 -5 -6
6 -1 11 2 17 5 13 3 -3 4 -12 1 -19z m10 -40 c-3 -8 -6 -5 -6 6 -1 11 2 17 5
13 3 -3 4 -12 1 -19z m10 -40 c-3 -8 -6 -5 -6 6 -1 11 2 17 5 13 3 -3 4 -12 1
-19z m10 -40 c-3 -8 -6 -5 -6 6 -1 11 2 17 5 13 3 -3 4 -12 1 -19z m10 -40
c-3 -8 -6 -5 -6 6 -1 11 2 17 5 13 3 -3 4 -12 1 -19z m10 -40 c-3 -8 -6 -5 -6
6 -1 11 2 17 5 13 3 -3 4 -12 1 -19z m10 -40 c-3 -8 -6 -5 -6 6 -1 11 2 17 5
13 3 -3 4 -12 1 -19z m40 -170 c-3 -8 -6 -5 -6 6 -1 11 2 17 5 13 3 -3 4 -12
1 -19z m10 -40 c-3 -8 -6 -5 -6 6 -1 11 2 17 5 13 3 -3 4 -12 1 -19z m10 -40
c-3 -8 -6 -5 -6 6 -1 11 2 17 5 13 3 -3 4 -12 1 -19z m10 -40 c-3 -8 -6 -5 -6
6 -1 11 2 17 5 13 3 -3 4 -12 1 -19z m10 -40 c-3 -8 -6 -5 -6 6 -1 11 2 17 5
13 3 -3 4 -12 1 -19z m10 -40 c-3 -8 -6 -5 -6 6 -1 11 2 17 5 13 3 -3 4 -12 1
-19z m10 -40 c-3 -8 -6 -5 -6 6 -1 11 2 17 5 13 3 -3 4 -12 1 -19z m20 -90
c-3 -8 -6 -5 -6 6 -1 11 2 17 5 13 3 -3 4 -12 1 -19z m10 -40 c-3 -8 -6 -5 -6
6 -1 11 2 17 5 13 3 -3 4 -12 1 -19z m10 -40 c-3 -8 -6 -5 -6 6 -1 11 2 17 5
13 3 -3 4 -12 1 -19z m10 -40 c-3 -8 -6 -5 -6 6 -1 11 2 17 5 13 3 -3 4 -12 1
-19z m20 -90 c-3 -8 -6 -5 -6 6 -1 11 2 17 5 13 3 -3 4 -12 1 -19z m10 -40
c-3 -8 -6 -5 -6 6 -1 11 2 17 5 13 3 -3 4 -12 1 -19z m10 -40 c-3 -8 -6 -5 -6
6 -1 11 2 17 5 13 3 -3 4 -12 1 -19z m10 -50 c-3 -8 -6 -5 -6 6 -1 11 2 17 5
13 3 -3 4 -12 1 -19z m10 -40 c-3 -8 -6 -5 -6 6 -1 11 2 17 5 13 3 -3 4 -12 1
-19z m10 -40 c-3 -8 -6 -5 -6 6 -1 11 2 17 5 13 3 -3 4 -12 1 -19z m10 -50
c-3 -8 -6 -5 -6 6 -1 11 2 17 5 13 3 -3 4 -12 1 -19z m10 -40 c-3 -8 -6 -5 -6
6 -1 11 2 17 5 13 3 -3 4 -12 1 -19z m10 -50 c-3 -7 -5 -2 -5 12 0 14 2 19 5
13 2 -7 2 -19 0 -25z m10 -40 c-3 -8 -6 -5 -6 6 -1 11 2 17 5 13 3 -3 4 -12 1
-19z m10 -50 c-3 -7 -5 -2 -5 12 0 14 2 19 5 13 2 -7 2 -19 0 -25z m10 -40
c-3 -8 -6 -5 -6 6 -1 11 2 17 5 13 3 -3 4 -12 1 -19z m10 -50 c-3 -7 -5 -2 -5
12 0 14 2 19 5 13 2 -7 2 -19 0 -25z m10 -40 c-3 -8 -6 -5 -6 6 -1 11 2 17 5
13 3 -3 4 -12 1 -19z m10 -50 c-3 -8 -6 -5 -6 6 -1 11 2 17 5 13 3 -3 4 -12 1
-19z m10 -60 c-3 -7 -5 -2 -5 12 0 14 2 19 5 13 2 -7 2 -19 0 -25z m10 -55
c-3 -10 -5 -4 -5 12 0 17 2 24 5 18 2 -7 2 -21 0 -30z m10 -65 c-3 -7 -5 -2
-5 12 0 14 2 19 5 13 2 -7 2 -19 0 -25z m10 -75 c-3 -10 -5 -4 -5 12 0 17 2
24 5 18 2 -7 2 -21 0 -30z m10 -105 c-2 -13 -4 -3 -4 22 0 25 2 35 4 23 2 -13
2 -33 0 -45z m10 -235 c-2 -32 -3 -6 -3 57 0 63 1 89 3 58 2 -32 2 -84 0 -115z
m-10 -165 c-3 -8 -6 -5 -6 6 -1 11 2 17 5 13 3 -3 4 -12 1 -19z m-10 -80 c-3
-8 -6 -5 -6 6 -1 11 2 17 5 13 3 -3 4 -12 1 -19z m-1780 -8120 c-3 -7 -5 -2
-5 12 0 14 2 19 5 13 2 -7 2 -19 0 -25z m482 -1933 c0 -5 -6 1 -14 15 -8 14
-14 30 -14 35 0 6 6 -1 14 -15 8 -14 14 -29 14 -35z m71 -135 c11 -22 18 -40
15 -40 -2 0 -14 18 -25 40 -11 22 -18 40 -15 40 2 0 14 -18 25 -40z m60 -110
c6 -11 8 -20 6 -20 -3 0 -10 9 -16 20 -6 11 -8 20 -6 20 3 0 10 -9 16 -20z"/>
<path d="M24875 46459 c-22 -5 -87 -25 -145 -44 -237 -78 -388 -105 -620 -112
-96 -3 -215 -1 -265 5 -49 6 -91 9 -93 7 -4 -4 168 -99 353 -196 189 -99 258
-157 270 -228 6 -37 4 -47 -14 -64 -18 -18 -32 -21 -94 -20 -82 1 -221 30
-358 73 -51 16 -94 28 -96 26 -1 -1 29 -30 67 -64 85 -76 211 -227 292 -347
66 -98 163 -285 198 -381 21 -61 23 -63 89 -93 111 -51 211 -73 336 -74 396
-2 692 274 734 683 34 334 -133 677 -388 798 -61 29 -87 36 -150 38 -42 2 -94
-1 -116 -7z"/>
<path d="M19526 42117 c-22 -98 -1026 -4296 -1120 -4688 -14 -59 -26 -108 -26
-110 0 -2 34 -3 75 -1 l75 4 0 34 c0 30 963 4077 1026 4314 14 52 39 123 55
158 l30 62 -37 168 c-20 92 -39 170 -43 174 -4 4 -19 -47 -35 -115z"/>
<path d="M15794 42110 c8 -19 30 -71 50 -115 20 -44 36 -87 36 -96 0 -8 13
-52 30 -97 16 -45 43 -132 60 -195 l30 -113 -2 -1955 -3 -1954 -114 110 c-187
181 -421 450 -573 660 -58 79 -169 246 -266 400 -28 44 -32 47 -32 24 0 -45
220 -404 407 -664 144 -201 427 -530 583 -679 119 -112 306 -276 407 -356 43
-35 80 -66 83 -70 8 -12 274 -204 370 -268 161 -106 395 -243 545 -319 83 -42
152 -80 155 -84 10 -14 212 -99 285 -120 134 -37 216 -16 242 64 26 78 -13
148 -217 387 -72 85 -170 205 -218 265 -47 61 -92 115 -98 120 -38 33 -283
396 -404 600 -130 218 -329 628 -430 885 -79 200 -166 489 -245 810 -60 244
-100 590 -130 1130 -19 331 -29 453 -55 626 -50 336 -129 598 -272 897 -34 70
-64 124 -67 121 -3 -3 -17 -42 -31 -87 l-26 -82 -46 80 c-59 101 -72 119 -54
75z"/>
<path d="M14364 40545 c-13 -114 -10 -580 4 -710 53 -468 174 -876 384 -1287
50 -97 99 -186 110 -197 10 -12 17 -25 14 -30 -7 -11 110 -190 209 -321 65
-85 181 -221 290 -338 41 -45 227 -212 264 -238 57 -40 -81 162 -271 396 -138
172 -265 365 -368 563 l-67 128 -24 -81 c-13 -44 -27 -80 -31 -80 -10 0 -130
249 -173 360 -92 235 -170 524 -206 759 -25 165 -36 452 -20 534 9 52 7 70
-18 175 -16 64 -41 185 -55 267 -15 83 -28 157 -30 165 -1 8 -7 -21 -12 -65z"/>
<path d="M14780 37958 l-13 -52 59 -53 c195 -178 471 -379 626 -457 86 -43
175 -59 195 -34 9 11 -25 37 -175 138 -194 130 -485 345 -609 449 l-71 61 -12
-52z"/>
<path d="M17621 33887 c-201 -622 -382 -1170 -404 -1217 -21 -47 -66 -131 -99
-187 l-61 -102 -38 43 c-49 55 -119 100 -187 120 -30 8 -57 15 -60 14 -4 -1
-32 11 -62 27 -58 30 -146 39 -220 22 -33 -7 -39 -4 -119 68 -82 73 -182 133
-233 139 -13 1 -40 12 -59 23 -104 64 -346 74 -542 22 l-39 -10 52 -55 c28
-30 50 -60 47 -67 -3 -9 -46 -11 -173 -9 -250 5 -376 -29 -525 -143 l-59 -47
45 -51 c26 -28 54 -65 62 -81 20 -38 45 -207 33 -220 -5 -5 -29 -1 -57 11 -60
26 -131 37 -147 24 -9 -8 -25 11 -61 69 -26 44 -51 80 -55 80 -11 0 -153 -158
-230 -255 -130 -163 -291 -443 -359 -622 l-20 -52 57 -6 c106 -11 245 -37 233
-44 -15 -10 12 -47 47 -65 15 -8 76 -28 135 -45 60 -17 168 -54 240 -83 181
-71 217 -71 462 1 99 30 205 60 235 69 39 10 70 29 105 61 43 40 42 38 -10
-17 -91 -96 -255 -199 -388 -246 -16 -5 -13 -13 27 -58 61 -70 114 -180 133
-276 l16 -79 85 -6 c82 -6 86 -8 113 -40 32 -38 57 -52 177 -96 67 -24 81 -27
72 -13 -7 9 12 -8 41 -40 30 -31 63 -71 73 -89 l19 -32 -29 7 c-205 47 -395
47 -549 1 -210 -62 -346 -156 -404 -279 -16 -33 -61 -153 -101 -266 -40 -113
-75 -210 -77 -216 -3 -8 30 -14 99 -18 134 -9 168 -15 168 -31 0 -20 57 -63
98 -74 59 -16 272 -33 322 -26 66 10 114 34 215 110 113 85 160 109 310 160
11 3 -11 -11 -50 -32 -100 -54 -209 -166 -263 -270 l-42 -82 83 -123 c149
-218 262 -427 358 -661 27 -66 51 -123 53 -125 3 -2 35 15 73 37 38 23 73 41
79 41 5 -1 -1 -7 -14 -14 l-24 -13 27 -31 c49 -59 100 -60 254 -7 119 40 215
56 391 64 143 6 173 10 215 30 67 32 587 550 633 630 42 74 56 167 48 306 -7
123 -25 197 -65 265 l-26 45 -6 -80 -5 -80 -2 108 -2 108 -42 50 c-24 27 -42
52 -42 56 1 5 -7 14 -18 21 -10 7 -16 18 -13 23 4 5 1 9 -4 9 -14 0 -54 80
-76 151 -10 31 -26 67 -36 80 -17 23 -23 24 -111 22 -51 -2 -88 0 -83 5 6 4
15 20 20 36 18 53 53 69 167 76 125 8 190 34 247 96 61 66 66 113 16 172 -22
26 -25 39 -25 105 l0 75 -35 6 c-112 21 -270 140 -338 254 -26 42 -36 52 -52
47 -11 -3 -55 -10 -98 -16 -81 -11 -184 -3 -269 23 l-38 11 32 24 c43 31 89
43 173 43 193 0 302 32 406 117 93 76 121 146 95 235 -18 63 -55 116 -66 98
-4 -7 -10 4 -15 26 -17 92 -90 228 -160 297 -53 51 -75 50 -75 -6 0 -56 -14
-102 -46 -151 l-27 -40 -16 24 c-9 14 -30 41 -48 61 -19 21 -36 55 -43 83 -13
58 -24 82 -59 121 -16 18 -18 23 -5 12 24 -20 34 -22 34 -6 0 5 17 36 38 67
102 152 213 355 267 487 20 50 180 537 356 1084 177 547 331 1019 344 1048 36
80 71 120 133 150 l57 28 1462 0 c805 0 1463 2 1463 5 0 3 -6 25 -14 50 l-13
45 -1574 2 -1574 3 -364 -1133z m-1131 -2026 c0 -11 -39 -21 -45 -11 -2 4 -2
10 2 14 10 9 43 7 43 -3z m587 -73 c-3 -8 -6 -5 -6 6 -1 11 2 17 5 13 3 -3 4
-12 1 -19z m430 -260 c-2 -13 -4 -3 -4 22 0 25 2 35 4 23 2 -13 2 -33 0 -45z
m-1194 -263 c16 -111 104 -269 291 -518 162 -217 225 -312 275 -417 48 -100
86 -242 96 -357 l8 -82 49 -17 c27 -9 82 -20 121 -24 40 -4 63 -8 53 -9 -18
-1 -17 -4 9 -31 35 -36 107 -63 126 -47 7 7 2 -2 -10 -20 -27 -39 -72 -78
-125 -106 -35 -19 -57 -22 -153 -22 l-111 0 -6 -35 c-20 -117 -152 -270 -263
-304 -22 -7 -21 -4 13 76 113 259 130 452 58 680 -37 116 -113 266 -126 247
-7 -10 -8 -8 -3 9 4 15 1 24 -9 28 -9 3 -13 10 -10 15 3 5 1 9 -4 9 -4 0 -16
17 -26 38 -38 79 -129 206 -209 290 -99 105 -136 148 -120 139 6 -4 -3 26 -19
65 -42 100 -50 218 -19 299 20 52 83 139 100 139 5 0 11 -20 14 -45z m-1524
-61 c14 -12 -19 -1 -35 12 -18 14 -18 14 6 3 14 -6 27 -13 29 -15z m972 -691
c13 -16 12 -17 -3 -4 -10 7 -18 15 -18 17 0 8 8 3 21 -13z m1662 -90 c-7 -2
-19 -2 -25 0 -7 3 -2 5 12 5 14 0 19 -2 13 -5z m-212 -160 c13 -16 12 -17 -3
-4 -10 7 -18 15 -18 17 0 8 8 3 21 -13z m-534 -185 c-3 -8 -6 -5 -6 6 -1 11 2
17 5 13 3 -3 4 -12 1 -19z m10 -60 c-3 -8 -6 -5 -6 6 -1 11 2 17 5 13 3 -3 4
-12 1 -19z m-362 -268 c-3 -6 -40 -9 -83 -8 l-77 2 80 6 c44 3 81 7 83 8 2 1
0 -2 -3 -8z m-198 -16 c-3 -3 -12 -4 -19 -1 -8 3 -5 6 6 6 11 1 17 -2 13 -5z
m-1039 -201 c-10 -2 -26 -2 -35 0 -10 3 -2 5 17 5 19 0 27 -2 18 -5z m109 -9
c-3 -3 -12 -4 -19 -1 -8 3 -5 6 6 6 11 1 17 -2 13 -5z m120 -10 c-3 -3 -12 -4
-19 -1 -8 3 -5 6 6 6 11 1 17 -2 13 -5z m1320 -250 c-3 -3 -12 -4 -19 -1 -8 3
-5 6 6 6 11 1 17 -2 13 -5z m-54 -11 c-7 -2 -19 -2 -25 0 -7 3 -2 5 12 5 14 0
19 -2 13 -5z"/>
<path d="M9545 32860 c-317 -48 -519 -121 -560 -201 -20 -38 -19 -50 11 -121
36 -85 35 -177 -1 -273 -48 -128 -50 -136 -35 -145 18 -11 69 8 123 47 34 24
54 50 85 111 l40 80 6 -37 c7 -45 32 -81 56 -81 10 0 40 18 67 40 80 66 147
108 209 128 97 33 300 54 436 46 140 -8 186 4 242 67 42 46 47 88 14 119 -36
33 -67 26 -127 -32 -30 -29 4 9 75 85 71 76 131 143 132 148 2 5 -11 9 -30 9
-35 0 -269 16 -374 25 l-61 5 -5 -44 c-6 -51 -42 -132 -63 -140 -8 -3 -22 -3
-30 0 -21 8 -57 89 -63 140 -2 24 -10 44 -16 43 -6 0 -65 -9 -131 -19z m-8
-326 c-3 -3 -12 -4 -19 -1 -8 3 -5 6 6 6 11 1 17 -2 13 -5z m291 -1 c-10 -2
-28 -2 -40 0 -13 2 -5 4 17 4 22 1 32 -1 23 -4z m105 -10 c-7 -2 -21 -2 -30 0
-10 3 -4 5 12 5 17 0 24 -2 18 -5z m80 -10 c-7 -2 -19 -2 -25 0 -7 3 -2 5 12
5 14 0 19 -2 13 -5z m-753 -77 c0 -2 -8 -10 -17 -17 -16 -13 -17 -12 -4 4 13
16 21 21 21 13z"/>
<path d="M10654 32680 c-7 -31 -22 -43 -183 -136 -95 -55 -221 -166 -221 -195
0 -11 14 -47 31 -81 17 -33 46 -100 64 -148 18 -48 45 -111 60 -140 36 -72
116 -155 171 -177 24 -10 44 -21 44 -25 0 -12 -62 -28 -108 -28 -26 0 -99 18
-171 41 -112 37 -133 41 -191 36 -64 -6 -215 -47 -295 -81 -88 -37 -164 -143
-215 -301 -35 -107 -101 -241 -164 -334 l-57 -83 41 -95 c66 -155 103 -302
128 -512 l7 -64 122 -41 c68 -22 118 -43 112 -47 -10 -6 56 -54 138 -99 24
-13 41 -25 39 -27 -2 -2 -82 -10 -177 -19 -208 -17 -324 -36 -483 -75 -429
-107 -581 -208 -618 -408 -24 -127 23 -262 128 -374 104 -110 167 -217 210
-357 7 -24 12 -45 10 -47 -1 -2 -30 18 -62 45 -82 65 -202 126 -313 158 -84
24 -105 26 -214 22 -98 -4 -138 -10 -202 -32 -93 -32 -190 -87 -257 -146 l-48
-42 0 -474 0 -474 73 -76 c85 -90 268 -250 350 -306 32 -21 84 -52 117 -67 33
-16 57 -31 54 -34 -9 -8 112 -65 154 -72 54 -9 106 14 129 57 16 30 18 59 16
300 l-1 267 65 -127 c155 -299 164 -325 170 -519 l5 -142 90 -52 c251 -144
518 -394 622 -581 49 -90 71 -164 95 -323 51 -342 145 -588 265 -691 40 -36
149 -94 174 -94 6 0 12 -4 12 -9 0 -5 10 -7 23 -4 16 3 18 2 8 -5 -11 -8 -9
-13 10 -25 128 -84 312 -94 559 -31 195 50 400 176 442 272 20 45 20 70 -2
126 l-11 29 -37 -34 -37 -34 34 37 33 37 -38 77 c-68 139 -241 284 -338 284
l-31 0 32 16 c56 28 120 106 140 170 33 110 20 974 -19 1179 -15 82 -74 196
-92 178 -3 -3 -6 5 -6 18 0 13 -13 51 -29 84 -35 75 -114 149 -180 169 -25 8
-38 15 -27 15 10 1 32 13 50 28 17 14 69 44 116 65 117 54 175 101 272 220
191 234 212 272 213 388 0 77 -3 90 -30 135 l-30 50 -6 -40 c-5 -35 -6 -33 -8
22 -2 88 -48 174 -120 225 l-54 37 29 13 c18 8 75 13 154 12 100 0 136 -4 182
-20 31 -11 54 -16 51 -11 -3 6 -1 7 5 3 20 -12 101 -131 122 -179 24 -54 50
-66 165 -75 61 -5 72 -8 45 -12 l-35 -5 43 -29 c52 -35 129 -45 199 -26 28 8
85 42 148 90 106 79 158 106 262 135 67 19 126 61 104 75 -10 5 -9 9 4 13 13
5 15 15 9 44 -9 51 -39 130 -65 172 -17 27 -23 31 -31 20 -7 -10 -8 -8 -3 8 4
13 1 25 -8 30 -8 4 -34 55 -57 113 -24 58 -44 106 -45 107 -1 2 -44 14 -96 27
-95 24 -235 78 -254 98 -5 6 5 3 23 -7 30 -15 36 -15 50 -2 10 8 37 20 62 27
86 22 131 51 98 63 -7 2 -3 2 9 1 20 -4 21 -1 18 45 -4 52 -26 105 -49 118 -7
4 -33 55 -56 113 -24 58 -49 110 -57 117 -19 15 -216 69 -323 88 -123 23 -281
22 -350 -2 -46 -15 -63 -28 -107 -83 -60 -75 -143 -210 -143 -234 0 -8 43 -74
95 -146 52 -72 95 -132 95 -135 0 -2 -28 9 -62 25 -152 71 -350 93 -488 55
-205 -57 -630 -315 -945 -574 -61 -50 -42 -29 79 89 236 230 357 323 611 464
66 37 132 79 148 94 31 30 36 75 11 110 -9 13 -14 25 -13 26 2 2 36 15 74 29
55 20 66 27 50 32 -208 76 -273 120 -475 325 -183 185 -281 271 -337 298 -37
18 -40 24 -17 47 51 50 173 65 263 31 32 -12 41 -12 35 -3 -5 7 -1 5 8 -5 9
-11 19 -18 21 -16 9 8 143 -113 245 -221 93 -100 124 -126 183 -155 40 -20 78
-36 86 -36 8 0 11 -5 7 -11 -4 -8 1 -9 17 -4 16 4 20 3 11 -3 -17 -11 36 -44
109 -68 108 -35 184 -4 280 116 85 106 105 157 119 297 13 125 34 163 90 163
32 0 80 -132 80 -222 l0 -48 54 0 c93 0 145 -11 151 -31 13 -41 145 -92 192
-75 15 6 15 8 3 16 -8 6 -10 10 -5 10 6 0 24 -9 40 -20 42 -28 48 -25 29 12
-9 18 -18 53 -19 78 -3 41 -36 126 -211 548 -31 73 -66 128 -79 124 -9 -4 -24
28 -66 148 -33 94 -57 126 -100 135 -62 14 -83 -1 -360 -252 -123 -111 -231
-172 -319 -180 -81 -8 -98 -1 -182 67 -40 33 -100 74 -133 90 -65 33 -185 65
-280 75 l-60 7 36 19 c124 63 356 87 489 50 41 -12 86 -23 100 -25 13 -2 26
-8 28 -14 2 -6 10 -8 19 -5 10 4 14 2 10 -4 -7 -11 71 -49 122 -59 66 -14 130
32 145 103 13 60 -59 264 -87 246 -6 -4 -8 0 -4 10 3 10 2 17 -4 17 -6 0 -8 4
-5 9 4 5 3 11 -2 13 -11 5 -78 119 -72 123 3 2 -4 11 -15 20 -11 9 -15 14 -8
10 8 -3 5 11 -7 37 -11 24 -20 64 -20 90 0 55 18 71 72 65 32 -4 193 -76 173
-78 -27 -2 76 -38 111 -38 47 -1 64 12 64 52 l0 28 -22 -23 c-13 -13 -17 -16
-9 -6 8 11 11 29 7 50 -3 18 -9 50 -12 70 -13 74 -261 324 -469 473 -89 63
-243 154 -298 174 -26 10 -28 9 -33 -19z m432 -612 l29 -33 -32 29 c-31 28
-38 36 -30 36 2 0 16 -15 33 -32z m59 -48 c10 -11 16 -20 13 -20 -3 0 -13 9
-23 20 -10 11 -16 20 -13 20 3 0 13 -9 23 -20z m278 -117 c-7 -2 -19 -2 -25 0
-7 3 -2 5 12 5 14 0 19 -2 13 -5z m-206 -335 c-3 -8 -6 -5 -6 6 -1 11 2 17 5
13 3 -3 4 -12 1 -19z m10 -75 c-3 -10 -5 -4 -5 12 0 17 2 24 5 18 2 -7 2 -21
0 -30z m-594 -10 c-13 -2 -33 -2 -45 0 -13 2 -3 4 22 4 25 0 35 -2 23 -4z
m268 -100 c13 -16 12 -17 -3 -4 -10 7 -18 15 -18 17 0 8 8 3 21 -13z m-598
-90 c-18 -2 -48 -2 -65 0 -18 2 -4 4 32 4 36 0 50 -2 33 -4z m1079 -274 c55
-21 87 -42 50 -33 -12 4 -28 -2 -39 -13 -19 -19 -20 -19 -57 24 -43 49 -34 54
46 22z m558 -54 c0 -5 -5 -3 -10 5 -5 8 -10 20 -10 25 0 6 5 3 10 -5 5 -8 10
-19 10 -25z m-355 -95 c10 -11 16 -20 13 -20 -3 0 -13 9 -23 20 -10 11 -16 20
-13 20 3 0 13 -9 23 -20z m-148 -137 c-3 -10 -5 -2 -5 17 0 19 2 27 5 18 2
-10 2 -26 0 -35z m-1360 -19 c-3 -3 -12 -4 -19 -1 -8 3 -5 6 6 6 11 1 17 -2
13 -5z m2013 -99 c0 -5 -5 -3 -10 5 -5 8 -10 20 -10 25 0 6 5 3 10 -5 5 -8 10
-19 10 -25z m-1023 -321 c-3 -3 -12 -4 -19 -1 -8 3 -5 6 6 6 11 1 17 -2 13 -5z
m118 -4 c-3 -5 -25 -9 -48 -8 l-42 1 45 7 c25 4 46 8 48 8 2 1 0 -2 -3 -8z
m-1164 -106 c9 -11 2 -9 -18 6 -18 13 -33 25 -33 27 0 8 38 -17 51 -33z m1574
-1024 c10 -11 16 -20 13 -20 -3 0 -13 9 -23 20 -10 11 -16 20 -13 20 3 0 13
-9 23 -20z m-487 3 c-16 -2 -40 -2 -55 0 -16 2 -3 4 27 4 30 0 43 -2 28 -4z
m-1198 -26 c0 -2 -15 -16 -32 -33 l-33 -29 29 33 c28 30 36 37 36 29z m-100
-90 c0 -2 -17 -19 -37 -38 l-38 -34 34 38 c33 34 41 42 41 34z m-1033 -1239
c-3 -8 -6 -5 -6 6 -1 11 2 17 5 13 3 -3 4 -12 1 -19z m10 -110 c-3 -7 -5 -2
-5 12 0 14 2 19 5 13 2 -7 2 -19 0 -25z m2270 -95 c-3 -10 -5 -4 -5 12 0 17 2
24 5 18 2 -7 2 -21 0 -30z m10 -125 c-3 -7 -5 -2 -5 12 0 14 2 19 5 13 2 -7 2
-19 0 -25z m-2280 -15 c-3 -10 -5 -4 -5 12 0 17 2 24 5 18 2 -7 2 -21 0 -30z
m-160 -29 c-3 -3 -12 -4 -19 -1 -8 3 -5 6 6 6 11 1 17 -2 13 -5z m116 -11
c-13 -2 -35 -2 -50 0 -16 2 -5 4 22 4 28 0 40 -2 28 -4z m2334 -140 c-3 -10
-5 -2 -5 17 0 19 2 27 5 18 2 -10 2 -26 0 -35z m-10 -915 c-3 -7 -5 -2 -5 12
0 14 2 19 5 13 2 -7 2 -19 0 -25z m-10 -24 c-3 -3 -12 -4 -19 -1 -8 3 -5 6 6
6 11 1 17 -2 13 -5z m-134 -161 c-7 -2 -19 -2 -25 0 -7 3 -2 5 12 5 14 0 19
-2 13 -5z m-405 -750 c-16 -2 -40 -2 -55 0 -16 2 -3 4 27 4 30 0 43 -2 28 -4z
m89 1 c-3 -3 -12 -4 -19 -1 -8 3 -5 6 6 6 11 1 17 -2 13 -5z"/>
<path d="M8690 32489 c-190 -156 -289 -261 -401 -428 -83 -123 -154 -268 -202
-411 -51 -154 -58 -225 -9 -90 44 120 60 153 112 230 57 83 142 158 275 240
196 121 300 248 299 364 0 51 -20 107 -39 112 -5 2 -21 -6 -35 -17z"/>
<path d="M9530 32291 c-82 -25 -116 -60 -163 -161 -34 -76 -103 -171 -161
-223 -46 -42 -125 -77 -172 -77 -42 0 -71 16 -168 94 -101 80 -215 73 -359
-24 -164 -109 -361 -370 -454 -597 -39 -95 -54 -173 -33 -173 6 0 40 25 73 55
60 53 174 117 229 129 26 6 27 5 13 -20 -13 -27 -11 -72 5 -88 5 -5 40 -7 77
-5 37 2 108 4 158 4 l89 0 54 -80 c29 -44 74 -122 100 -174 65 -129 97 -137
192 -48 42 39 43 39 10 4 -34 -37 -34 -37 -14 -57 11 -11 33 -24 49 -28 97
-27 187 75 375 423 222 412 324 539 515 644 109 60 131 99 79 140 l-27 21 40
0 c88 0 97 52 18 112 -130 98 -404 165 -525 129z m427 -257 c-3 -3 -12 -4 -19
-1 -8 3 -5 6 6 6 11 1 17 -2 13 -5z m-1519 -711 c-10 -2 -28 -2 -40 0 -13 2
-5 4 17 4 22 1 32 -1 23 -4z"/>
<path d="M8682 32085 c-35 -37 -40 -55 -18 -55 21 0 63 41 71 68 10 34 -17 28
-53 -13z"/>
<path d="M22907 31619 c7 -7 15 -10 18 -7 3 3 -2 9 -12 12 -14 6 -15 5 -6 -5z"/>
<path d="M13990 31237 c0 -10 -70 -634 -75 -674 l-6 -42 31 9 c16 5 65 12 108
15 l77 7 25 -38 c33 -51 58 -62 190 -79 149 -20 171 -26 338 -102 214 -97 300
-97 391 2 70 76 77 169 21 258 -16 25 -33 62 -39 83 -15 56 -58 110 -146 187
-122 105 -219 157 -464 248 -144 54 -451 139 -451 126z m228 -694 c-10 -2 -28
-2 -40 0 -13 2 -5 4 17 4 22 1 32 -1 23 -4z m432 -169 c0 -2 -9 0 -20 6 -11 6
-20 13 -20 16 0 2 9 0 20 -6 11 -6 20 -13 20 -16z"/>
<path d="M8342 31060 c-68 -31 -246 -140 -307 -187 l-55 -43 0 -411 0 -410 46
33 c26 18 71 59 100 91 43 46 54 54 54 37 0 -29 26 -76 45 -84 9 -3 26 -6 37
-6 17 0 19 -4 13 -32 -4 -18 -25 -82 -47 -143 -30 -84 -40 -125 -40 -176 -1
-127 38 -233 114 -306 68 -66 189 -109 235 -84 26 13 43 80 43 169 0 131 52
249 155 353 83 84 181 142 328 194 179 63 190 69 242 116 78 72 108 155 85
238 -8 29 -20 48 -39 59 -25 14 -29 23 -33 77 -6 67 -32 136 -73 189 l-27 35
-66 -55 c-136 -112 -271 -156 -367 -119 -88 33 -194 166 -280 350 -42 90 -60
117 -80 125 -34 13 -33 13 -83 -10z m975 -622 c-3 -8 -6 -5 -6 6 -1 11 2 17 5
13 3 -3 4 -12 1 -19z m-1106 -201 c-10 -9 -11 -8 -5 6 3 10 9 15 12 12 3 -3 0
-11 -7 -18z m76 -129 c-3 -7 -5 -2 -5 12 0 14 2 19 5 13 2 -7 2 -19 0 -25z
m190 -410 c-3 -8 -6 -5 -6 6 -1 11 2 17 5 13 3 -3 4 -12 1 -19z m0 -110 c-3
-8 -6 -5 -6 6 -1 11 2 17 5 13 3 -3 4 -12 1 -19z"/>
<path d="M14000 30354 c-19 -2 -50 -7 -67 -10 l-33 -5 0 -847 c1 -830 1 -846
19 -797 26 72 61 124 122 179 l52 47 16 -48 c19 -56 48 -76 102 -69 31 3 39 0
50 -21 26 -48 132 -115 226 -143 23 -7 40 -16 38 -20 -7 -11 77 -60 130 -76
88 -27 188 -29 311 -5 61 11 134 21 163 21 29 0 62 5 74 10 17 8 16 7 -3 -7
-65 -45 -148 -140 -170 -198 -28 -72 -38 -205 -20 -289 29 -141 148 -292 273
-346 31 -14 57 -28 57 -32 0 -4 -26 -16 -57 -29 -84 -31 -202 -32 -261 -1 -23
13 -40 27 -38 31 5 8 -142 299 -165 327 -6 8 -15 12 -19 9 -4 -3 -23 32 -41
78 -29 70 -45 93 -114 163 -210 211 -474 232 -692 53 l-53 -43 0 -1023 c0
-563 4 -1023 8 -1023 5 0 44 9 87 20 69 18 151 27 118 13 -9 -3 -7 -15 8 -45
l21 -40 -37 -54 c-43 -62 -99 -110 -175 -150 -50 -26 -64 -29 -150 -29 -82 1
-111 6 -205 37 -140 46 -167 50 -221 37 -103 -26 -164 -164 -210 -475 -22
-150 -22 -468 0 -639 57 -430 197 -861 323 -996 43 -46 166 -119 199 -119 8 0
14 -4 14 -10 0 -5 7 -6 17 -3 10 4 14 2 9 -5 -9 -14 68 -59 147 -85 50 -16 89
-20 197 -20 280 -1 441 70 786 347 260 208 354 314 394 443 42 138 83 176 185
177 l60 1 30 -60 c28 -55 30 -68 30 -166 0 -98 -2 -110 -30 -164 -33 -63 -94
-121 -119 -112 -13 5 -16 23 -16 82 0 74 0 75 -25 75 -51 0 -91 -28 -290 -199
-330 -284 -609 -458 -881 -550 -193 -65 -293 -63 -510 11 -139 47 -175 47
-262 -2 -129 -74 -252 -315 -309 -605 -26 -132 -26 -520 1 -660 36 -192 98
-338 159 -376 45 -27 61 -24 109 18 24 21 34 28 24 15 -19 -22 -19 -22 4 -47
30 -32 77 -41 121 -22 19 8 81 54 138 102 331 276 583 369 893 331 209 -26
463 -83 698 -156 201 -62 239 -70 357 -77 101 -5 150 -1 293 24 82 14 203 62
278 109 103 65 173 147 239 279 33 65 185 448 253 635 70 192 123 290 202 375
165 177 423 270 655 236 163 -25 166 -25 157 -10 -6 11 -5 12 7 2 19 -16 54 1
83 40 21 28 21 37 21 477 0 440 0 449 -21 477 -12 16 -33 29 -47 31 l-27 3 0
153 c0 151 0 153 30 208 56 104 70 186 70 417 0 119 -5 223 -11 246 -7 24 -27
55 -50 77 l-39 37 0 85 0 85 -76 17 c-99 21 -227 15 -306 -15 -37 -14 -87 -48
-145 -98 -48 -42 -76 -63 -61 -47 35 38 182 265 247 381 63 111 111 215 162
348 43 111 46 115 23 24 -28 -109 -2 -193 89 -286 28 -29 55 -53 59 -53 4 0 8
161 8 358 l0 359 24 22 c41 39 63 108 80 251 9 74 26 164 37 200 59 180 -2
446 -106 466 l-35 6 -2 178 -3 178 -120 -133 c-66 -74 -125 -134 -131 -135 -6
0 -62 24 -125 54 -135 64 -350 138 -468 160 -208 40 -400 0 -552 -113 -85 -64
-126 -125 -158 -235 -27 -93 -70 -177 -123 -239 l-27 -32 11 45 c22 97 -13
334 -78 530 -41 125 -164 376 -182 373 -6 -2 -9 4 -6 12 3 8 -6 25 -21 39 -16
15 -24 30 -19 37 4 8 3 9 -4 5 -11 -6 -13 -2 -12 19 1 3 -5 12 -12 19 -7 7
-40 57 -73 110 -33 54 -101 153 -152 220 l-92 123 -143 7 c-244 12 -517 52
-575 84 -20 12 -27 128 -12 201 6 31 29 94 51 141 61 129 78 186 78 257 0 67
-15 109 -55 153 -12 14 -28 48 -34 76 -33 140 -187 212 -471 219 -80 2 -161 1
-180 -1z m657 -346 c-3 -7 -5 -2 -5 12 0 14 2 19 5 13 2 -7 2 -19 0 -25z m-87
-653 c13 -14 21 -25 18 -25 -2 0 -15 11 -28 25 -13 14 -21 25 -18 25 2 0 15
-11 28 -25z m-333 -522 c-3 -10 -5 -2 -5 17 0 19 2 27 5 18 2 -10 2 -26 0 -35z
m340 -219 c-3 -3 -12 -4 -19 -1 -8 3 -5 6 6 6 11 1 17 -2 13 -5z m121 -11
c-16 -2 -40 -2 -55 0 -16 2 -3 4 27 4 30 0 43 -2 28 -4z m572 -3 c0 -5 -5 -10
-11 -10 -5 0 -7 5 -4 10 3 6 8 10 11 10 2 0 4 -4 4 -10z m587 -322 c-3 -8 -6
-5 -6 6 -1 11 2 17 5 13 3 -3 4 -12 1 -19z m30 -150 c-3 -8 -6 -5 -6 6 -1 11
2 17 5 13 3 -3 4 -12 1 -19z m10 -60 c-3 -8 -6 -5 -6 6 -1 11 2 17 5 13 3 -3
4 -12 1 -19z m-987 -248 c6 -11 8 -20 6 -20 -3 0 -10 9 -16 20 -6 11 -8 20 -6
20 3 0 10 -9 16 -20z m1070 -143 c0 -2 -15 -16 -32 -33 l-33 -29 29 33 c28 30
36 37 36 29z m-70 -70 c0 -2 -12 -14 -27 -28 l-28 -24 24 28 c23 25 31 32 31
24z m777 -84 c-3 -10 -5 -4 -5 12 0 17 2 24 5 18 2 -7 2 -21 0 -30z m-2174
-215 c85 -50 159 -117 193 -174 15 -25 35 -91 50 -164 67 -327 229 -571 453
-683 46 -23 92 -49 102 -59 26 -25 136 -74 209 -94 90 -24 282 -24 370 0 245
67 423 244 600 596 68 136 102 225 155 405 48 165 57 155 25 -30 -81 -473
-371 -855 -821 -1081 -59 -29 -155 -70 -212 -90 l-105 -36 15 -51 c61 -206
173 -373 329 -490 49 -37 158 -106 243 -154 85 -49 160 -94 168 -101 7 -7 13
-11 13 -7 0 3 14 -1 30 -10 17 -9 30 -20 30 -26 0 -6 5 -7 10 -4 6 3 10 1 10
-4 0 -6 3 -10 8 -9 15 4 52 -14 47 -23 -3 -5 1 -6 9 -3 8 3 23 -3 34 -14 11
-11 23 -18 26 -14 3 3 6 0 6 -6 0 -14 150 -90 245 -125 195 -69 419 -59 642
30 36 14 79 37 96 51 18 14 5 -3 -28 -37 -109 -114 -244 -196 -384 -232 -139
-37 -378 -24 -523 27 -30 10 -40 11 -43 1 -81 -241 -232 -574 -376 -824 -135
-235 -348 -543 -527 -761 -92 -112 -98 -135 -46 -168 21 -14 41 -16 122 -11
53 3 111 8 127 10 17 3 24 2 18 0 -15 -5 -17 -41 -4 -62 7 -11 12 -7 25 15 8
16 15 25 16 20 0 -18 -52 -85 -86 -111 -106 -81 -222 -97 -329 -46 -33 15 -99
53 -146 84 -164 106 -315 168 -479 198 -79 15 -422 19 -560 8 -41 -4 -64 -4
-50 -2 13 3 40 19 59 35 49 43 163 95 246 113 110 23 243 19 386 -12 161 -34
334 -36 452 -4 177 47 291 136 495 388 217 266 312 420 348 563 32 128 3 283
-83 438 -20 36 -39 59 -45 55 -7 -4 -8 -1 -3 7 5 8 1 18 -10 27 -11 7 -16 13
-12 13 5 0 3 6 -3 13 -6 6 -35 52 -66 102 -68 109 -137 196 -259 324 -165 173
-332 380 -434 538 -40 62 -95 89 -162 80 -62 -8 -93 -45 -170 -206 -114 -237
-218 -376 -360 -482 -38 -28 -76 -64 -84 -80 -21 -39 -19 -88 5 -126 23 -38
51 -55 105 -62 32 -5 41 -11 43 -28 8 -53 -99 -137 -191 -149 -25 -4 -69 -1
-99 6 -70 16 -262 110 -313 154 l-40 34 0 104 c0 99 1 106 28 141 15 20 35 37
45 37 11 0 5 12 -23 42 l-40 42 47 -40 c43 -37 102 -64 142 -64 9 0 16 -4 16
-9 0 -14 96 -51 132 -51 18 0 56 13 84 30 91 51 226 253 391 584 98 194 123
261 123 326 0 53 -24 133 -46 151 -8 6 -14 18 -14 25 0 8 -24 47 -53 87 -72
97 -95 133 -79 123 8 -5 -4 25 -26 65 -45 82 -73 146 -142 326 -50 130 -105
227 -123 216 -6 -4 -8 0 -4 10 3 10 3 17 -2 17 -5 0 -12 12 -15 26 -10 40 -54
103 -120 174 -34 35 -54 59 -45 52 15 -11 15 -8 2 41 -18 63 -7 119 33 167
l26 30 40 -45 c22 -25 72 -64 111 -87z m2184 60 c-3 -7 -5 -2 -5 12 0 14 2 19
5 13 2 -7 2 -19 0 -25z m-2426 -125 c13 -16 12 -17 -3 -4 -10 7 -18 15 -18 17
0 8 8 3 21 -13z m3316 -155 c-3 -8 -6 -5 -6 6 -1 11 2 17 5 13 3 -3 4 -12 1
-19z m0 -185 c-3 -10 -5 -4 -5 12 0 17 2 24 5 18 2 -7 2 -21 0 -30z m-10 -65
c-3 -8 -6 -5 -6 6 -1 11 2 17 5 13 3 -3 4 -12 1 -19z m-13 -52 c-3 -15 -8 -25
-11 -23 -2 3 -1 17 3 31 3 15 8 25 11 23 2 -3 1 -17 -3 -31z m-2954 -171 c0
-5 -5 -3 -10 5 -5 8 -10 20 -10 25 0 6 5 3 10 -5 5 -8 10 -19 10 -25z m45 -85
c9 -16 13 -30 11 -30 -3 0 -12 14 -21 30 -9 17 -13 30 -11 30 3 0 12 -13 21
-30z m85 -150 c6 -11 8 -20 6 -20 -3 0 -10 9 -16 20 -6 11 -8 20 -6 20 3 0 10
-9 16 -20z m-593 -162 c-3 -7 -5 -2 -5 12 0 14 2 19 5 13 2 -7 2 -19 0 -25z
m1270 -4 c-3 -3 -12 -4 -19 -1 -8 3 -5 6 6 6 11 1 17 -2 13 -5z m81 -11 c-10
-2 -26 -2 -35 0 -10 3 -2 5 17 5 19 0 27 -2 18 -5z m1572 -307 c0 -2 -8 -10
-17 -17 -16 -13 -17 -12 -4 4 13 16 21 21 21 13z m-40 -30 c0 -2 -8 -10 -17
-17 -16 -13 -17 -12 -4 4 13 16 21 21 21 13z m-40 -30 c0 -2 -8 -10 -17 -17
-16 -13 -17 -12 -4 4 13 16 21 21 21 13z m560 -840 c0 -2 -8 -10 -17 -17 -16
-13 -17 -12 -4 4 13 16 21 21 21 13z m-1000 -26 c8 -5 11 -10 5 -10 -5 0 -17
5 -25 10 -8 5 -10 10 -5 10 6 0 17 -5 25 -10z m167 -56 c-3 -3 -12 -4 -19 -1
-8 3 -5 6 6 6 11 1 17 -2 13 -5z m76 -11 c-7 -2 -21 -2 -30 0 -10 3 -4 5 12 5
17 0 24 -2 18 -5z m-2812 -60 c13 -16 12 -17 -3 -4 -10 7 -18 15 -18 17 0 8 8
3 21 -13z m2146 -385 c-3 -8 -6 -5 -6 6 -1 11 2 17 5 13 3 -3 4 -12 1 -19z
m-2370 -684 c-3 -3 -12 -4 -19 -1 -8 3 -5 6 6 6 11 1 17 -2 13 -5z m3869 -10
c18 -14 18 -14 -6 -3 -31 14 -36 19 -24 19 6 0 19 -7 30 -16z m-3768 -1 c-10
-2 -28 -2 -40 0 -13 2 -5 4 17 4 22 1 32 -1 23 -4z m109 1 c-3 -3 -12 -4 -19
-1 -8 3 -5 6 6 6 11 1 17 -2 13 -5z m566 -451 c-7 -2 -21 -2 -30 0 -10 3 -4 5
12 5 17 0 24 -2 18 -5z m80 0 c-7 -2 -19 -2 -25 0 -7 3 -2 5 12 5 14 0 19 -2
13 -5z m345 -70 c-10 -2 -26 -2 -35 0 -10 3 -2 5 17 5 19 0 27 -2 18 -5z
m-801 -209 c-3 -3 -12 -4 -19 -1 -8 3 -5 6 6 6 11 1 17 -2 13 -5z m1180 -850
c-3 -3 -12 -4 -19 -1 -8 3 -5 6 6 6 11 1 17 -2 13 -5z m101 -11 c-10 -2 -28
-2 -40 0 -13 2 -5 4 17 4 22 1 32 -1 23 -4z m135 0 c-7 -2 -19 -2 -25 0 -7 3
-2 5 12 5 14 0 19 -2 13 -5z"/>
<path d="M7981 29341 c-1 -154 1 -172 15 -167 9 3 19 6 24 6 19 0 70 53 70 72
0 12 -11 35 -24 52 -37 49 -59 97 -72 156 -11 51 -12 42 -13 -119z"/>
<path d="M12467 28829 c-68 -16 -99 -37 -95 -66 2 -19 12 -28 41 -38 85 -29
115 -101 56 -134 -28 -16 -43 -13 -269 50 -94 26 -213 21 -347 -16 -254 -68
-408 -162 -564 -342 -84 -97 -94 -121 -93 -228 0 -78 4 -100 32 -167 54 -133
76 -285 88 -620 l7 -188 35 -20 c47 -28 147 -68 189 -76 20 -4 30 -10 24 -14
-16 -9 51 -54 112 -74 72 -24 197 -35 286 -25 120 14 210 35 233 55 12 11 7 0
-11 -22 -72 -91 -221 -185 -317 -200 -25 -3 -47 -11 -50 -16 -3 -5 0 -56 6
-114 20 -173 0 -196 -70 -81 -62 101 -144 179 -217 207 -108 41 -168 28 -202
-44 -28 -58 -34 -122 -21 -194 17 -98 43 -144 128 -236 76 -82 96 -114 176
-288 31 -66 72 -88 127 -69 28 10 34 8 61 -19 16 -16 50 -36 76 -44 42 -12 48
-12 54 3 6 14 7 14 7 0 2 -31 -61 -139 -106 -184 -26 -25 -68 -55 -95 -68 -29
-13 -50 -30 -52 -42 -2 -11 -11 -66 -20 -123 -51 -334 -177 -710 -336 -1003
-54 -100 -64 -157 -36 -222 25 -60 163 -164 406 -308 41 -24 77 -47 78 -51 2
-5 8 -6 13 -2 5 3 9 0 9 -6 0 -6 4 -9 9 -6 5 3 11 0 14 -7 9 -23 200 -111 511
-237 165 -66 314 -129 332 -141 31 -19 33 -19 44 -2 7 12 10 13 7 3 -2 -8 -14
-21 -28 -28 -48 -26 -363 6 -677 69 -56 11 -107 19 -111 17 -5 -2 91 -252 212
-556 235 -587 248 -612 327 -652 22 -11 57 -20 80 -20 24 0 39 -4 38 -11 -4
-16 79 -59 111 -59 68 1 155 71 190 154 37 87 90 382 110 611 26 306 32 736
11 816 -12 47 -54 119 -69 119 -5 0 -12 -8 -14 -17 -3 -10 -5 3 -6 29 -3 119
-47 209 -109 221 -15 3 -63 -1 -107 -10 -71 -13 -158 -14 -171 -1 -8 8 16 62
38 85 12 12 62 39 112 60 154 63 234 164 252 317 4 32 2 68 -6 90 -12 37 -56
80 -71 70 -5 -3 -9 31 -9 76 0 64 -15 170 -24 170 -1 0 -46 -11 -100 -25 -82
-21 -122 -25 -228 -24 -115 0 -133 -2 -180 -24 -29 -13 -71 -41 -93 -63 -57
-55 -97 -84 -114 -83 -9 0 -5 5 9 10 14 5 42 36 64 70 54 83 126 156 178 179
24 10 82 25 130 34 110 21 157 37 214 76 142 99 286 380 271 534 -4 40 -11 55
-36 78 -18 16 -35 27 -39 24 -4 -2 -6 56 -4 131 l4 135 -43 -23 c-83 -42 -180
-58 -257 -43 -22 4 -28 10 -21 18 5 6 20 25 32 42 12 16 59 63 105 103 104 91
156 156 197 246 66 141 81 290 45 430 -19 74 -71 175 -91 175 -5 0 -9 8 -9 18
0 57 -95 190 -170 237 -95 60 -253 89 -359 66 -83 -18 -340 -35 -402 -27 l-56
7 31 36 c39 44 77 63 191 98 174 53 244 107 253 195 5 50 -16 125 -42 153 -12
13 -42 77 -30 65 4 -5 12 2 18 14 17 33 55 50 99 43 29 -4 37 -2 32 7 -3 7 8
-3 25 -22 17 -19 48 -71 69 -115 22 -44 49 -90 62 -101 27 -24 80 -44 116 -44
13 0 36 -9 51 -20 86 -64 174 -30 211 80 21 62 33 297 27 507 -9 272 -22 339
-82 403 -12 14 -28 47 -34 74 -15 66 -32 96 -79 139 -65 59 -192 82 -304 56z
m400 -361 c-2 -13 -4 -3 -4 22 0 25 2 35 4 23 2 -13 2 -33 0 -45z m-656 -595
c13 -16 12 -17 -3 -4 -10 7 -18 15 -18 17 0 8 8 3 21 -13z m30 -40 c13 -16 12
-17 -3 -4 -17 13 -22 21 -14 21 2 0 10 -8 17 -17z m19 -187 c0 -2 -8 -10 -17
-17 -16 -13 -17 -12 -4 4 13 16 21 21 21 13z m-2 -627 c-3 -8 -7 -3 -11 10 -4
17 -3 21 5 13 5 -5 8 -16 6 -23z m-631 -55 c-3 -3 -12 -4 -19 -1 -8 3 -5 6 6
6 11 1 17 -2 13 -5z m101 -11 c-10 -2 -26 -2 -35 0 -10 3 -2 5 17 5 19 0 27
-2 18 -5z m75 0 c-7 -2 -21 -2 -30 0 -10 3 -4 5 12 5 17 0 24 -2 18 -5z m1054
-25 c-3 -8 -6 -5 -6 6 -1 11 2 17 5 13 3 -3 4 -12 1 -19z m10 -70 c-3 -7 -5
-2 -5 12 0 14 2 19 5 13 2 -7 2 -19 0 -25z m-910 -1005 c-3 -10 -5 -2 -5 17 0
19 2 27 5 18 2 -10 2 -26 0 -35z m473 -1698 c13 -14 21 -25 18 -25 -2 0 -15
11 -28 25 -13 14 -21 25 -18 25 2 0 15 -11 28 -25z m276 -707 l19 -23 -25 20
c-14 11 -27 21 -29 22 -2 2 0 3 6 3 5 0 18 -10 29 -22z m201 -125 c-2 -16 -4
-3 -4 27 0 30 2 43 4 28 2 -16 2 -40 0 -55z m-10 -140 c-3 -10 -5 -2 -5 17 0
19 2 27 5 18 2 -10 2 -26 0 -35z m-10 -115 c-3 -8 -6 -5 -6 6 -1 11 2 17 5 13
3 -3 4 -12 1 -19z"/>
<path d="M13305 27343 c-56 -71 -119 -196 -142 -283 -23 -86 -23 -261 0 -350
9 -36 36 -103 59 -150 59 -118 188 -248 303 -305 44 -22 84 -46 89 -54 12 -19
130 -71 161 -71 15 0 37 11 52 26 22 23 25 31 20 73 -3 27 -39 133 -80 237
-41 104 -100 254 -131 334 -63 161 -97 226 -115 222 -7 -1 -10 2 -6 8 3 5 3
10 -2 10 -4 0 -40 81 -78 180 -38 99 -73 180 -77 180 -3 0 -27 -26 -53 -57z
m412 -1159 c-3 -3 -12 -4 -19 -1 -8 3 -5 6 6 6 11 1 17 -2 13 -5z m56 -11 c-7
-2 -19 -2 -25 0 -7 3 -2 5 12 5 14 0 19 -2 13 -5z"/>
<path d="M8228 27250 c-63 -11 -145 -35 -201 -60 l-47 -21 0 -914 c0 -759 2
-915 13 -915 23 0 128 39 164 60 19 11 32 16 28 11 -10 -17 17 -59 45 -71 80
-33 157 89 140 220 -4 30 -14 94 -21 142 -20 139 7 245 106 408 51 84 60 130
39 196 -15 47 -19 53 -33 42 -9 -6 -6 -1 6 12 l23 24 -38 40 c-20 21 -31 36
-24 32 8 -5 12 1 12 18 0 43 32 66 93 66 28 -1 70 -7 92 -15 49 -18 49 -18 39
-2 -5 7 -1 4 9 -6 9 -11 17 -16 17 -12 0 14 68 -42 164 -135 152 -147 230
-274 307 -498 23 -64 52 -138 66 -164 28 -51 113 -136 206 -205 69 -52 132
-131 189 -237 30 -58 66 -104 124 -162 82 -82 143 -120 209 -131 20 -3 31 -9
25 -13 -7 -4 11 -16 41 -30 65 -28 114 -22 148 16 27 32 25 77 -7 122 -17 24
-18 31 -6 62 7 19 13 38 13 41 1 3 -26 23 -60 44 -89 54 -167 123 -224 195
-27 35 -44 61 -38 57 6 -4 -2 27 -18 68 -38 97 -55 171 -74 330 -23 191 -57
310 -126 447 -24 47 -33 58 -41 47 -7 -10 -8 -8 -3 8 4 15 0 25 -12 32 -10 6
-13 11 -8 11 6 0 6 3 -1 8 -5 4 -23 32 -38 62 -79 153 -166 248 -321 351 -152
100 -530 323 -625 368 -117 55 -228 72 -352 51z m-42 -517 c-3 -4 8 -22 26
-40 17 -18 30 -33 27 -33 -3 0 -23 18 -44 40 -31 32 -35 40 -20 40 10 0 15 -3
11 -7z m154 -178 c13 -14 21 -25 18 -25 -2 0 -15 11 -28 25 -13 14 -21 25 -18
25 2 0 15 -11 28 -25z m1307 -407 c-3 -8 -6 -5 -6 6 -1 11 2 17 5 13 3 -3 4
-12 1 -19z m10 -60 c-3 -8 -6 -5 -6 6 -1 11 2 17 5 13 3 -3 4 -12 1 -19z m10
-160 c-3 -8 -6 -5 -6 6 -1 11 2 17 5 13 3 -3 4 -12 1 -19z m-1420 -70 c-3 -8
-6 -5 -6 6 -1 11 2 17 5 13 3 -3 4 -12 1 -19z m40 -170 c-3 -8 -6 -5 -6 6 -1
11 2 17 5 13 3 -3 4 -12 1 -19z m10 -100 c-2 -13 -4 -3 -4 22 0 25 2 35 4 23
2 -13 2 -33 0 -45z m1513 -58 c6 -11 8 -20 6 -20 -3 0 -10 9 -16 20 -6 11 -8
20 -6 20 3 0 10 -9 16 -20z m-1560 -63 c0 -2 -12 -14 -27 -28 l-28 -24 24 28
c23 25 31 32 31 24z"/>
<path d="M8655 26071 c-114 -71 -187 -237 -170 -386 20 -184 90 -330 264 -550
97 -123 94 -147 -14 -125 -89 18 -207 83 -281 154 l-66 63 -58 -49 c-71 -59
-112 -119 -141 -206 -24 -73 -83 -197 -98 -206 -21 -13 -45 11 -77 78 l-34 70
1 -314 c1 -271 3 -309 13 -270 13 46 44 111 69 144 12 17 15 3 20 -115 12
-245 68 -493 148 -657 41 -86 64 -118 127 -182 63 -63 94 -86 172 -124 52 -25
91 -46 85 -46 -5 0 8 -12 29 -26 137 -94 394 -129 581 -79 132 35 203 77 441
261 l131 102 -33 -56 c-66 -108 -111 -270 -99 -352 20 -136 115 -233 268 -275
28 -7 46 -14 39 -14 -22 -1 -3 -20 47 -46 112 -57 222 -54 377 9 80 33 84 33
90 14 17 -54 121 -75 184 -37 25 15 31 17 21 5 -30 -36 55 -84 119 -66 19 5
71 32 116 60 256 157 464 180 732 80 61 -23 76 -25 65 -7 -4 6 5 4 20 -6 l27
-17 2 112 2 113 3 -107 c3 -79 7 -108 16 -108 24 0 56 39 68 83 16 57 16 252
-1 302 -14 43 -55 105 -71 105 -5 0 -10 -46 -11 -102 -2 -73 -4 -50 -8 80 l-5
183 -60 20 c-81 27 -189 82 -251 127 -29 20 -84 60 -124 89 -119 86 -259 118
-332 76 -18 -10 -48 -41 -66 -68 -29 -42 -32 -45 -26 -20 12 52 52 135 141
293 146 261 270 553 347 819 60 208 58 277 -8 291 -17 3 -35 5 -40 4 -5 -2 -6
4 -3 12 10 25 58 268 55 275 -2 4 -226 -89 -498 -207 l-496 -214 -32 -72 c-86
-191 -211 -290 -482 -384 -63 -22 -200 -71 -305 -110 -104 -39 -199 -74 -210
-78 -11 -4 -2 6 20 23 168 125 208 310 108 507 -19 38 -27 46 -35 35 -8 -11
-8 -9 -4 5 4 11 3 22 -1 25 -4 3 -20 31 -35 62 -33 70 -161 241 -264 354 -43
47 -85 97 -94 112 -8 15 -22 34 -30 41 -8 7 -10 11 -4 8 7 -3 -3 35 -22 85
-19 51 -34 93 -34 95 0 11 -63 73 -70 69 -5 -3 -12 21 -15 52 -13 102 -41 150
-107 184 -47 24 -95 24 -133 0z m822 -1163 c-3 -8 -6 -5 -6 6 -1 11 2 17 5 13
3 -3 4 -12 1 -19z m0 -80 c-3 -8 -6 -5 -6 6 -1 11 2 17 5 13 3 -3 4 -12 1 -19z
m-720 -384 c-3 -3 -12 -4 -19 -1 -8 3 -5 6 6 6 11 1 17 -2 13 -5z m70 -10 c-3
-3 -12 -4 -19 -1 -8 3 -5 6 6 6 11 1 17 -2 13 -5z m-312 -54 c10 -11 16 -20
13 -20 -3 0 -13 9 -23 20 -10 11 -16 20 -13 20 3 0 13 -9 23 -20z m295 -10
c66 -20 140 -33 200 -37 112 -8 96 -15 -71 -34 -125 -13 -254 -7 -314 15 -22
8 -35 15 -29 15 7 1 14 12 18 24 6 25 37 45 71 46 11 1 67 -13 125 -29z m1080
-655 c-24 -25 -46 -45 -49 -45 -3 0 15 20 39 45 24 25 46 45 49 45 3 0 -15
-20 -39 -45z m-60 -69 c0 -2 -8 -10 -17 -17 -16 -13 -17 -12 -4 4 13 16 21 21
21 13z m-1093 -322 c-3 -3 -12 -4 -19 -1 -8 3 -5 6 6 6 11 1 17 -2 13 -5z m86
-11 c-7 -2 -21 -2 -30 0 -10 3 -4 5 12 5 17 0 24 -2 18 -5z m2787 -323 c8 -5
11 -10 5 -10 -5 0 -17 5 -25 10 -8 5 -10 10 -5 10 6 0 17 -5 25 -10z m80 -46
c0 -2 -9 0 -20 6 -11 6 -20 13 -20 16 0 2 9 0 20 -6 11 -6 20 -13 20 -16z"/>
<path d="M7981 23552 l-1 -303 50 27 c28 15 71 49 95 75 64 68 62 95 -12 179
-70 81 -110 164 -122 255 -6 53 -9 -4 -10 -233z"/>
<path d="M17237 23595 c-165 -45 -296 -168 -442 -415 -68 -116 -104 -208 -151
-387 -56 -214 -118 -333 -243 -466 -250 -265 -650 -417 -957 -363 -51 8 -141
33 -200 55 -60 22 -161 58 -224 81 -152 55 -248 77 -394 91 -209 19 -490 -13
-671 -78 -425 -153 -772 -565 -975 -1159 l-27 -80 187 -495 c103 -272 316
-832 473 -1244 156 -413 303 -787 325 -831 157 -313 443 -616 765 -811 51 -30
95 -60 99 -67 4 -6 8 -7 8 -2 0 6 7 1 16 -10 8 -10 12 -13 9 -6 -5 10 2 9 26
-3 41 -21 52 -31 24 -22 l-20 7 20 -16 c39 -31 281 -143 374 -173 400 -130
784 -101 1180 89 358 173 711 488 954 851 178 267 307 594 369 934 l23 130 0
2015 c0 1903 -1 2018 -18 2061 -9 25 -31 58 -47 74 -28 27 -30 33 -30 106 l0
77 -72 26 c-40 14 -93 30 -118 36 -63 13 -205 11 -263 -5z m-1910 -6351 c-3
-3 -12 -4 -19 -1 -8 3 -5 6 6 6 11 1 17 -2 13 -5z m60 -10 c-3 -3 -12 -4 -19
-1 -8 3 -5 6 6 6 11 1 17 -2 13 -5z m76 -11 c-7 -2 -19 -2 -25 0 -7 3 -2 5 12
5 14 0 19 -2 13 -5z"/>
<path d="M8269 23197 c-102 -38 -171 -110 -238 -247 l-46 -95 -3 -336 -3 -336
61 -57 c75 -69 160 -128 263 -182 43 -22 78 -45 77 -50 -4 -15 157 -95 261
-130 188 -64 437 -89 506 -51 61 33 65 47 67 254 2 199 11 248 57 323 l22 35
19 -93 c27 -135 81 -289 149 -428 l59 -121 85 -33 c51 -20 98 -46 119 -66 18
-18 60 -46 92 -62 108 -53 341 -143 399 -152 186 -30 325 94 489 435 73 151
134 237 220 307 34 27 76 66 94 86 18 20 -6 -21 -53 -93 -182 -276 -267 -504
-250 -670 16 -151 66 -231 180 -285 34 -16 67 -30 73 -30 5 0 24 -13 42 -30
46 -43 118 -73 275 -114 77 -21 209 -59 292 -87 84 -27 168 -49 186 -49 45 0
84 32 97 78 13 48 13 176 0 224 -11 38 -54 98 -71 98 -5 0 -9 -84 -9 -195 0
-179 -1 -195 -17 -195 -13 0 -15 3 -5 8 9 7 12 70 10 283 l-3 274 -59 29 c-34
17 -80 31 -111 34 -55 5 -97 -11 -203 -74 -23 -14 -47 -24 -54 -22 -16 6 36
39 112 72 93 41 192 109 245 169 54 61 138 226 160 312 19 76 20 330 2 401 -7
28 -26 73 -43 100 l-29 49 -6 -75 c-5 -72 -5 -70 -7 36 l-2 111 -58 69 c-73
87 -179 164 -266 192 -171 56 -353 4 -635 -180 -108 -71 -319 -178 -351 -178
-14 0 -14 0 20 -85 28 -70 38 -125 24 -125 -3 0 -31 23 -62 50 -32 28 -82 63
-112 78 -51 25 -63 27 -160 25 -163 -4 -235 23 -354 136 -94 89 -223 237 -297
343 -76 107 -114 136 -222 170 -49 16 -84 19 -168 16 -98 -3 -111 -6 -181 -41
-92 -45 -171 -126 -219 -222 -46 -94 -59 -88 -74 37 -8 66 -34 113 -75 136
-19 11 -28 22 -24 32 3 8 11 34 17 58 15 55 -2 89 -58 117 -51 24 -193 32
-246 12z m1018 -839 c-3 -7 -5 -2 -5 12 0 14 2 19 5 13 2 -7 2 -19 0 -25z
m1793 -92 c0 -2 -8 -10 -17 -17 -16 -13 -17 -12 -4 4 13 16 21 21 21 13z
m-2273 -472 c-3 -3 -12 -4 -19 -1 -8 3 -5 6 6 6 11 1 17 -2 13 -5z m1113 -274
c8 -5 11 -10 5 -10 -5 0 -17 5 -25 10 -8 5 -10 10 -5 10 6 0 17 -5 25 -10z
m243 -77 c-13 -2 -33 -2 -45 0 -13 2 -3 4 22 4 25 0 35 -2 23 -4z m1114 -59
c-3 -3 -12 -4 -19 -1 -8 3 -5 6 6 6 11 1 17 -2 13 -5z m-210 -290 c-3 -3 -12
-4 -19 -1 -8 3 -5 6 6 6 11 1 17 -2 13 -5z m40 -10 c-3 -3 -12 -4 -19 -1 -8 3
-5 6 6 6 11 1 17 -2 13 -5z m543 -174 c8 -5 11 -10 5 -10 -5 0 -17 5 -25 10
-8 5 -10 10 -5 10 6 0 17 -5 25 -10z"/>
<path d="M12710 21968 c-52 -29 -59 -30 -141 -25 l-86 6 94 -237 c52 -130 118
-297 146 -371 41 -104 57 -135 75 -142 33 -13 73 -11 101 5 22 12 28 11 52 -6
33 -25 56 -21 83 15 18 24 21 41 20 115 -2 159 -49 345 -99 392 -14 13 -25 19
-26 14 0 -5 -7 16 -15 46 -34 130 -46 160 -70 189 -33 39 -61 39 -134 -1z
m257 -450 c-3 -8 -6 -5 -6 6 -1 11 2 17 5 13 3 -3 4 -12 1 -19z m0 -210 c-3
-8 -6 -5 -6 6 -1 11 2 17 5 13 3 -3 4 -12 1 -19z m-26 -71 c-10 -9 -11 -8 -5
6 3 10 9 15 12 12 3 -3 0 -11 -7 -18z"/>
<path d="M7980 21362 l0 -362 33 -20 c47 -29 85 -26 98 8 17 41 12 166 -11
283 -20 105 -106 438 -115 447 -3 3 -5 -157 -5 -356z"/>
<path d="M8865 21563 c-227 -27 -432 -134 -519 -271 -58 -93 -69 -200 -36
-362 48 -236 151 -445 330 -670 129 -161 80 -153 -158 24 -149 111 -244 208
-267 271 -33 92 -54 130 -82 146 -36 21 -95 31 -128 23 l-25 -6 2 -382 3 -381
70 -47 c39 -26 109 -67 157 -91 48 -25 84 -48 80 -52 -4 -5 1 -5 11 -2 10 4
16 3 12 -3 -14 -23 262 -137 389 -159 180 -33 333 12 451 133 111 113 167 257
168 426 0 147 -50 302 -123 380 -16 17 -49 68 -72 112 -57 107 -151 208 -230
247 l-61 31 41 39 c63 60 137 84 257 84 73 0 117 -5 162 -20 38 -13 61 -16 57
-9 -3 6 11 -7 31 -29 44 -48 75 -109 75 -150 0 -35 -30 -104 -53 -124 -14 -11
-18 -11 -22 5 -16 52 -54 110 -80 119 -23 8 -30 6 -47 -15 -32 -40 -20 -94 48
-207 135 -228 176 -337 177 -472 0 -117 -17 -190 -69 -298 -35 -73 -59 -108
-117 -165 -40 -40 -91 -84 -114 -98 -40 -24 -41 -27 -48 -93 -8 -78 1 -214 21
-337 55 -327 214 -623 460 -860 110 -106 199 -170 326 -236 54 -27 96 -53 92
-56 -10 -10 167 -95 264 -128 276 -92 537 -109 789 -50 225 53 406 203 508
422 35 75 33 119 -6 152 -35 30 -40 31 -58 14 -7 -7 -2 10 12 37 27 56 79 196
74 201 -1 2 -25 -4 -52 -13 -37 -12 -90 -17 -200 -17 -130 -1 -160 2 -222 22
-40 12 -73 26 -73 31 0 5 7 15 17 22 12 11 40 13 117 9 56 -3 180 -5 276 -5
174 0 175 0 235 30 69 35 107 82 132 165 14 46 17 119 20 425 l4 371 -30 95
c-38 117 -38 145 -5 240 21 59 27 99 31 194 3 74 1 136 -6 162 -11 41 -54 103
-71 103 -5 0 -11 -26 -13 -57 -2 -32 -4 13 -5 99 l-2 157 -42 5 c-24 3 -92 8
-153 11 -141 8 -402 40 -530 65 -151 30 -343 95 -408 138 -113 75 -212 191
-253 298 -9 24 -22 44 -29 44 -7 0 -46 -36 -88 -79 -150 -157 -210 -374 -162
-579 32 -136 68 -183 485 -637 448 -488 499 -551 521 -650 12 -55 2 -115 -27
-150 -8 -11 -13 -15 -9 -8 6 12 -28 37 -38 27 -2 -3 -10 9 -16 26 -35 100
-171 251 -292 323 -155 92 -247 85 -292 -23 -29 -72 -105 -133 -188 -153 -32
-8 -36 -24 -45 -172 -11 -185 24 -375 97 -525 54 -109 178 -238 281 -290 37
-19 65 -36 63 -38 -2 -2 -13 1 -24 7 -17 10 -20 9 -15 -4 16 -40 -183 1 -315
66 -63 31 -103 60 -160 117 -42 41 -66 67 -53 57 l22 -18 -15 36 c-8 21 -25
79 -37 129 -16 72 -27 99 -50 121 -18 18 -34 27 -45 23 -14 -6 -15 6 -10 116
3 68 9 134 13 147 7 24 6 24 -41 18 -26 -4 -69 -19 -94 -33 -45 -25 -45 -25
-25 -2 11 13 31 39 42 59 33 54 159 169 230 209 174 98 228 150 253 244 21 79
-7 196 -61 254 -11 11 -20 28 -20 37 0 37 -33 86 -124 184 -53 57 -94 106 -92
109 3 2 -3 12 -12 21 -10 9 -12 12 -5 7 7 -5 2 16 -12 46 -59 129 -87 322 -66
457 6 40 25 114 41 163 37 113 38 161 5 211 -14 20 -33 37 -41 37 -12 0 -6 13
20 50 l36 50 -23 14 c-53 35 -303 148 -421 191 -256 92 -518 138 -681 118z
m372 -1235 c-3 -8 -6 -5 -6 6 -1 11 2 17 5 13 3 -3 4 -12 1 -19z m2540 -550
c-1 -46 -3 -11 -3 77 0 88 2 125 3 83 2 -42 2 -114 0 -160z m-3220 -84 c-3 -3
-12 -4 -19 -1 -8 3 -5 6 6 6 11 1 17 -2 13 -5z m60 -10 c-3 -3 -12 -4 -19 -1
-8 3 -5 6 6 6 11 1 17 -2 13 -5z m1153 -607 c0 -2 -12 -14 -27 -28 l-28 -24
24 28 c23 25 31 32 31 24z m187 -269 c-3 -8 -6 -5 -6 6 -1 11 2 17 5 13 3 -3
4 -12 1 -19z m1230 -4 c-3 -3 -12 -4 -19 -1 -8 3 -5 6 6 6 11 1 17 -2 13 -5z
m106 -11 c-7 -2 -21 -2 -30 0 -10 3 -4 5 12 5 17 0 24 -2 18 -5z m-237 -111
c-5 -4 -66 26 -66 33 0 3 16 -3 35 -12 19 -9 33 -18 31 -21z m-391 -372 c-3
-5 -12 -10 -18 -10 -7 0 -6 4 3 10 19 12 23 12 15 0z m-418 -366 c-3 -3 -12
-4 -19 -1 -8 3 -5 6 6 6 11 1 17 -2 13 -5z m40 -10 c-3 -3 -12 -4 -19 -1 -8 3
-5 6 6 6 11 1 17 -2 13 -5z m160 -30 c-3 -3 -12 -4 -19 -1 -8 3 -5 6 6 6 11 1
17 -2 13 -5z m80 -10 c-3 -3 -12 -4 -19 -1 -8 3 -5 6 6 6 11 1 17 -2 13 -5z"/>
<path d="M7980 19485 l0 -133 48 -11 c110 -25 188 -33 387 -38 116 -3 214 -9
218 -13 4 -4 -16 -19 -46 -34 -69 -34 -142 -98 -167 -147 -16 -30 -20 -56 -18
-116 2 -63 -3 -88 -22 -131 -22 -51 -22 -55 -7 -87 28 -60 50 -67 147 -50 46
8 86 13 88 10 3 -3 0 -5 -7 -5 -8 0 -7 -8 3 -29 14 -25 31 -36 90 -55 27 -9
171 13 232 35 101 38 118 84 85 230 -12 52 -27 131 -35 175 -16 92 -39 148
-70 170 -19 13 -21 13 -28 -8 -3 -13 -6 34 -7 103 l-1 127 -122 6 c-68 4 -202
5 -298 4 -167 -2 -179 -1 -255 25 -44 14 -110 44 -147 66 l-68 40 0 -134z
m1035 -676 c-4 -5 -14 -8 -23 -8 -15 1 -15 2 1 6 9 2 14 9 11 15 -4 7 -2 8 5
4 6 -4 9 -12 6 -17z m-348 -65 c-3 -3 -12 -4 -19 -1 -8 3 -5 6 6 6 11 1 17 -2
13 -5z"/>
<path d="M7996 19143 c7 -32 13 -64 14 -72 0 -25 160 12 160 37 0 17 -37 42
-98 67 -91 37 -93 36 -76 -32z"/>
<path d="M8134 18663 c162 -380 387 -697 683 -966 l108 -98 50 5 c29 3 42 2
31 -3 -17 -7 -16 -10 15 -28 88 -53 174 -55 300 -6 95 37 207 110 245 160 37
49 40 123 8 168 l-22 29 24 32 25 32 -58 32 c-54 30 -198 158 -189 167 2 2 -7
15 -21 29 -13 13 -21 29 -18 34 3 6 1 10 -4 10 -6 0 -34 46 -62 103 -59 120
-77 142 -144 173 -65 31 -160 32 -267 3 -73 -20 -95 -37 -68 -54 19 -12 107
-149 147 -230 74 -147 130 -348 102 -366 -13 -8 -6 -13 14 -10 4 0 7 -9 7 -21
0 -22 0 -22 -17 2 -10 14 -17 26 -16 27 1 1 -10 15 -25 31 -15 15 -65 75 -112
132 -106 130 -324 349 -455 459 -100 83 -297 231 -308 231 -4 0 9 -35 27 -77z
m1406 -766 c0 -2 -12 -14 -27 -28 l-28 -24 24 28 c23 25 31 32 31 24z m-473
-283 c-3 -3 -12 -4 -19 -1 -8 3 -5 6 6 6 11 1 17 -2 13 -5z"/>
<path d="M9802 17824 c-21 -11 -55 -49 -93 -104 -109 -160 -208 -231 -364
-265 -113 -24 -115 -24 -115 -44 0 -24 23 -43 95 -79 56 -28 234 -92 256 -92
5 0 25 -15 44 -34 64 -64 201 -92 335 -69 64 11 126 13 255 8 157 -6 175 -5
240 15 186 58 365 185 365 258 0 32 -36 72 -65 72 -10 0 -28 -8 -39 -17 -12
-10 0 5 25 32 95 103 111 142 67 167 -28 15 -372 18 -519 4 -86 -8 -104 -6
-167 13 -40 12 -88 35 -111 54 -22 17 -56 45 -75 60 -43 35 -91 43 -134 21z
m285 -600 c-3 -3 -12 -4 -19 -1 -8 3 -5 6 6 6 11 1 17 -2 13 -5z m-400 -10
c-3 -3 -12 -4 -19 -1 -8 3 -5 6 6 6 11 1 17 -2 13 -5z m66 -11 c-7 -2 -19 -2
-25 0 -7 3 -2 5 12 5 14 0 19 -2 13 -5z"/>
<path d="M26990 15495 l0 -695 50 0 50 0 0 695 0 695 -50 0 -50 0 0 -695z"/>
<path d="M21733 16120 c-118 -31 -180 -66 -269 -155 -87 -87 -137 -173 -170
-295 -25 -91 -25 -329 0 -420 59 -215 190 -359 396 -432 81 -29 273 -36 373
-14 160 36 288 133 355 267 17 37 32 69 32 73 0 3 -24 6 -54 6 l-53 0 -39 -66
c-81 -139 -206 -204 -394 -204 -154 0 -262 42 -362 142 -64 64 -118 166 -142
268 -21 86 -21 265 0 349 63 258 247 411 496 411 198 0 336 -75 413 -222 l30
-58 54 0 c53 0 53 0 47 28 -37 154 -190 289 -371 327 -98 21 -253 18 -342 -5z"/>
<path d="M15357 16123 c-4 -3 -7 -303 -7 -665 l0 -658 61 0 60 0 -3 609 c-2
335 -2 608 0 606 1 -1 69 -97 150 -212 81 -115 273 -388 427 -606 l280 -397
77 0 78 0 0 665 0 666 -57 -3 -58 -3 1 -593 c1 -327 -2 -590 -6 -585 -4 4 -40
55 -80 113 -41 58 -228 322 -418 588 l-344 482 -77 0 c-43 0 -81 -3 -84 -7z"/>
<path d="M10279 16094 c-5 -15 -123 -307 -261 -648 -138 -342 -253 -627 -255
-633 -4 -10 10 -13 49 -13 l55 0 42 108 c23 59 65 162 93 230 l50 122 311 -2
310 -3 93 -223 c51 -123 95 -226 97 -229 3 -2 29 -3 59 -1 l54 3 -276 655
-276 655 -67 3 c-65 3 -67 2 -78 -24z m111 -149 c13 -33 72 -177 132 -320 59
-143 108 -263 108 -267 0 -4 -122 -8 -271 -8 -213 0 -270 3 -266 13 8 18 242
619 251 641 9 25 18 14 46 -59z"/>
<path d="M14220 15890 l0 -150 -95 0 -95 0 0 -40 0 -40 95 0 95 0 0 -357 c1
-375 4 -407 47 -455 43 -49 153 -71 252 -52 28 6 31 10 31 44 l0 37 -73 -1
c-89 -1 -120 13 -141 66 -13 32 -16 94 -16 378 l0 340 125 0 125 0 0 40 0 40
-125 0 -125 0 0 150 0 150 -50 0 -50 0 0 -150z"/>
<path d="M27490 15890 l0 -150 -95 0 -95 0 0 -40 0 -40 95 0 95 0 0 -352 c0
-223 4 -368 11 -393 14 -50 63 -102 109 -115 39 -11 152 -13 188 -4 18 5 22
13 22 44 l0 38 -74 -1 c-61 -2 -79 2 -103 19 -49 36 -52 61 -52 427 l-1 337
125 0 125 0 0 40 0 40 -125 0 -125 0 0 150 0 150 -50 0 -50 0 0 -150z"/>
<path d="M30280 15890 l0 -150 -95 0 -95 0 0 -40 0 -40 95 0 95 0 0 -352 c0
-223 4 -368 11 -393 14 -50 63 -102 109 -115 39 -11 152 -13 188 -4 18 5 22
13 22 44 l0 38 -74 -1 c-61 -2 -79 2 -103 19 -49 36 -52 61 -52 427 l-1 337
125 0 125 0 0 40 0 40 -125 0 -125 0 0 150 0 150 -50 0 -50 0 0 -150z"/>
<path d="M11424 15756 c-83 -19 -135 -47 -176 -96 -56 -65 -72 -147 -43 -218
35 -83 109 -125 312 -177 215 -55 278 -95 290 -183 8 -60 -4 -108 -38 -147
-45 -51 -105 -70 -224 -70 -89 0 -106 3 -157 28 -62 30 -111 82 -129 134 -10
31 -13 33 -60 33 -27 0 -49 -4 -49 -8 0 -33 39 -110 76 -151 78 -87 205 -129
358 -118 206 14 326 116 326 276 0 153 -80 217 -355 286 -161 41 -227 73 -251
123 -31 67 -4 146 67 187 42 25 198 34 264 15 56 -16 130 -79 147 -125 11 -33
14 -35 61 -35 l50 0 -7 33 c-10 48 -65 124 -116 158 -86 58 -232 81 -346 55z"/>
<path d="M13372 15759 c-115 -20 -202 -82 -243 -173 -30 -66 -26 -76 29 -76
46 0 47 1 65 45 23 54 73 100 124 114 58 16 213 14 264 -4 52 -19 96 -58 115
-102 8 -19 14 -67 14 -116 l0 -85 -192 -5 c-204 -5 -252 -14 -349 -63 -58 -29
-116 -95 -130 -148 -6 -22 -9 -70 -7 -107 4 -84 42 -150 112 -196 68 -46 116
-58 236 -57 136 0 202 24 277 99 29 28 55 50 58 47 3 -3 5 -24 5 -46 0 -78 6
-86 62 -86 37 0 47 3 41 13 -4 6 -10 181 -13 387 l-5 375 -28 48 c-34 57 -92
102 -159 122 -64 19 -209 26 -276 14z m378 -496 c0 -72 -21 -198 -40 -241 -44
-98 -124 -147 -264 -159 -128 -10 -228 35 -267 122 -32 71 -20 154 30 208 64
70 158 91 424 95 l117 2 0 -27z"/>
<path d="M17105 15756 c-166 -40 -278 -160 -321 -343 -21 -91 -14 -253 15
-343 39 -124 131 -224 244 -266 78 -29 270 -27 347 4 80 31 133 74 180 144 53
79 52 88 -8 88 -45 0 -50 -2 -79 -44 -63 -89 -140 -126 -264 -126 -197 0 -313
116 -344 343 l-6 47 385 0 386 0 0 73 c0 222 -121 384 -318 426 -67 14 -152
13 -217 -3z m258 -110 c94 -46 153 -132 164 -242 l6 -54 -327 0 -327 0 7 38
c36 197 154 297 340 289 63 -3 93 -9 137 -31z"/>
<path d="M19393 15755 c-106 -29 -191 -90 -255 -185 -16 -24 -17 -22 -17 78
l-1 102 -50 0 -50 0 0 -475 0 -475 49 0 49 0 4 288 c6 322 11 350 77 438 55
74 138 119 254 139 37 6 37 6 37 55 0 58 -5 59 -97 35z"/>
<path d="M19940 15754 c-88 -24 -141 -54 -203 -115 -99 -99 -143 -228 -134
-394 10 -216 109 -372 277 -436 78 -30 226 -37 306 -14 123 35 224 116 278
223 79 156 75 394 -9 537 -98 169 -315 252 -515 199z m227 -89 c103 -31 185
-118 224 -237 18 -57 21 -85 17 -180 -3 -101 -7 -120 -34 -178 -39 -84 -79
-128 -146 -166 -50 -27 -60 -29 -163 -29 -103 0 -113 2 -163 29 -135 75 -200
214 -190 405 6 110 30 185 82 253 34 44 114 95 170 109 53 12 150 10 203 -6z"/>
<path d="M23003 15755 c-171 -37 -288 -153 -333 -330 -87 -342 112 -643 426
-645 287 -1 473 194 474 497 0 161 -43 275 -141 368 -68 65 -138 100 -229 114
-82 14 -120 13 -197 -4z m234 -97 c195 -73 283 -339 193 -582 -70 -186 -301
-267 -481 -169 -65 35 -114 90 -153 172 -30 63 -31 72 -31 191 0 70 5 143 12
165 18 60 73 144 115 178 84 67 234 87 345 45z"/>
<path d="M24189 15760 c-97 -17 -186 -74 -224 -144 -11 -20 -23 -36 -27 -36
-5 0 -8 36 -8 80 l0 80 -50 0 -50 0 0 -470 0 -470 50 0 50 0 0 258 c0 141 5
286 11 322 20 129 80 220 177 267 50 24 68 28 147 28 99 -1 146 -17 197 -72
61 -64 63 -75 66 -455 l3 -348 50 0 50 0 -3 363 c-3 352 -4 363 -26 411 -33
72 -66 112 -119 143 -78 45 -186 61 -294 43z"/>
<path d="M25153 15760 c-220 -40 -320 -258 -180 -388 51 -46 112 -71 281 -113
166 -41 224 -71 254 -129 12 -24 22 -60 22 -80 0 -20 -10 -56 -22 -80 -19 -36
-34 -51 -83 -75 -53 -27 -69 -30 -155 -30 -88 0 -101 3 -161 32 -65 32 -100
69 -130 136 -11 24 -17 27 -61 27 -57 0 -60 -9 -24 -85 64 -136 209 -204 406
-192 105 6 173 28 236 76 68 52 94 106 94 198 0 158 -80 221 -368 293 -125 31
-188 58 -216 91 -37 43 -42 88 -17 143 17 39 29 50 73 71 75 35 210 36 283 1
54 -25 101 -73 117 -118 9 -26 14 -28 60 -28 l51 0 -7 32 c-17 85 -101 171
-199 202 -62 20 -187 28 -254 16z"/>
<path d="M28292 15759 c-120 -20 -223 -97 -250 -187 -18 -60 -17 -62 37 -62
47 0 50 1 61 34 30 93 108 136 245 136 144 0 212 -29 253 -110 17 -35 22 -61
22 -127 l0 -83 -157 0 c-244 -1 -365 -30 -447 -108 -55 -53 -76 -103 -76 -187
0 -124 68 -222 184 -262 68 -24 261 -24 324 0 59 23 128 72 149 107 20 35 33
24 33 -30 1 -72 7 -80 62 -80 44 0 49 2 42 18 -4 9 -10 184 -13 387 -6 354 -7
372 -28 410 -43 81 -115 125 -233 144 -75 12 -133 12 -208 0z m370 -549 c-5
-177 -44 -254 -156 -310 -65 -32 -76 -35 -165 -34 -81 0 -104 4 -145 23 -124
61 -153 220 -56 312 67 64 181 88 410 85 l115 -1 -3 -75z"/>
<path d="M29469 15760 c-97 -17 -186 -74 -224 -144 -11 -20 -23 -36 -27 -36
-5 0 -8 36 -8 80 l0 80 -50 0 -50 0 0 -470 0 -470 50 0 50 0 0 258 c0 141 5
286 11 322 20 129 80 220 177 267 50 24 68 28 147 28 99 -1 146 -17 197 -72
61 -64 63 -75 66 -455 l3 -348 50 0 50 0 -3 363 c-3 352 -4 363 -26 411 -33
72 -66 112 -119 143 -78 45 -186 61 -294 43z"/>
<path d="M17902 15378 c3 -361 4 -375 25 -421 62 -134 160 -184 345 -175 86 4
106 9 165 39 50 25 77 47 103 82 l35 47 3 -75 3 -75 49 0 50 0 0 475 0 475
-49 0 -49 0 -5 -312 c-5 -341 -9 -370 -66 -459 -39 -63 -111 -98 -214 -106
-106 -8 -169 9 -222 61 -71 68 -75 94 -75 483 l0 333 -51 0 -50 0 3 -372z"/>
<path d="M12070 15735 c0 -4 88 -225 196 -492 l195 -486 -32 -74 c-39 -89 -96
-157 -147 -174 -20 -7 -72 -13 -114 -12 l-78 1 0 -44 0 -44 43 -2 c202 -7 283
41 367 217 31 64 440 1098 440 1111 0 2 -22 4 -49 4 l-49 0 -40 -102 c-21 -57
-95 -250 -162 -430 -68 -180 -126 -325 -129 -322 -3 3 -80 195 -171 427 l-166
422 -52 3 c-29 2 -52 0 -52 -3z"/>
<path d="M25870 15405 c0 -209 4 -354 11 -387 31 -146 127 -224 289 -235 154
-11 278 34 342 123 l33 46 3 -76 3 -76 49 0 50 0 0 470 0 470 -49 0 -49 0 -4
-307 c-4 -279 -6 -314 -25 -371 -43 -129 -116 -181 -264 -190 -138 -8 -211 26
-262 121 -21 41 -22 51 -25 395 l-3 352 -49 0 -50 0 0 -335z"/>
</g>
</svg>
